<?xml version="1.0" encoding="UTF-8"?> <svg xmlns="http://www.w3.org/2000/svg" width="163" height="59" viewBox="0 0 163 59" fill="none"><g filter="url(#filter0_d_39_87)"><ellipse cx="30" cy="25.5" rx="26" ry="25.5" fill="#EEE1FF"></ellipse></g><g style="mix-blend-mode:multiply"><path d="M4.73242 14.8633H11.0801L14.8521 22.0166L18.4226 14.8633H24.2637V16.8164H22.3105V28.0469H24.2637V30H16.4512V28.0469H18.4043V19.2395L14.498 27.0703H13.2773L9.12695 19.209V28.0469H11.0801V30H4.73242V28.0469H6.68555V16.8164H4.73242V14.8633ZM29.177 18.9832C29.8931 18.7024 30.652 18.562 31.4536 18.562C32.2552 18.562 33.012 18.7024 33.7241 18.9832C34.4403 19.2639 35.0628 19.6566 35.5918 20.1611C36.1208 20.6616 36.5378 21.2801 36.843 22.0166C37.1523 22.7531 37.3069 23.5547 37.3069 24.4214C37.3069 25.2881 37.1523 26.0897 36.843 26.8262C36.5378 27.5627 36.1208 28.1832 35.5918 28.6877C35.0628 29.1882 34.4403 29.5789 33.7241 29.8596C33.012 30.1404 32.2552 30.2808 31.4536 30.2808C30.652 30.2808 29.8931 30.1404 29.177 29.8596C28.4649 29.5789 27.8444 29.1882 27.3154 28.6877C26.7905 28.1832 26.3735 27.5627 26.0642 26.8262C25.759 26.0897 25.6064 25.2881 25.6064 24.4214C25.6064 23.5547 25.759 22.7531 26.0642 22.0166C26.3735 21.2801 26.7905 20.6616 27.3154 20.1611C27.8444 19.6566 28.4649 19.2639 29.177 18.9832ZM31.4536 20.5151C31.1688 20.5151 30.9145 20.5558 30.6907 20.6372C30.4669 20.7186 30.2614 20.8529 30.0742 21.04C29.887 21.2272 29.7324 21.4693 29.6104 21.7664C29.4924 22.0634 29.3988 22.4337 29.3296 22.8772C29.2645 23.3207 29.2319 23.8354 29.2319 24.4214C29.2319 25.0073 29.2645 25.5221 29.3296 25.9656C29.3988 26.4091 29.4924 26.7794 29.6104 27.0764C29.7324 27.3735 29.887 27.6156 30.0742 27.8027C30.2614 27.9899 30.4669 28.1242 30.6907 28.2056C30.9145 28.2869 31.1688 28.3276 31.4536 28.3276C31.8117 28.3276 32.123 28.2605 32.3875 28.1262C32.6519 27.9879 32.8818 27.7681 33.0771 27.467C33.2765 27.1659 33.425 26.7611 33.5227 26.2524C33.6244 25.7438 33.6753 25.1335 33.6753 24.4214C33.6753 23.7093 33.6244 23.099 33.5227 22.5903C33.425 22.0817 33.2765 21.6768 33.0771 21.3757C32.8818 21.0746 32.6519 20.8569 32.3875 20.7227C32.123 20.5843 31.8117 20.5151 31.4536 20.5151ZM45.9678 18.5254C46.5374 18.5254 47.0359 18.6027 47.4631 18.7573C47.8904 18.9119 48.2403 19.1256 48.5129 19.3982C48.7856 19.6667 49.0053 20.0106 49.1721 20.4297C49.343 20.8447 49.461 21.2923 49.5261 21.7725C49.5953 22.2485 49.6299 22.7938 49.6299 23.4082V28.0469H50.8506V30H44.9912V28.0469H46.2119V23.1641C46.2119 22.5212 46.1529 22.0207 46.0349 21.6626C45.921 21.3045 45.7542 21.0583 45.5344 20.9241C45.3188 20.7898 45.0238 20.7227 44.6494 20.7227C44.3035 20.7227 43.9475 20.8712 43.5813 21.1682C43.2192 21.4653 42.8753 21.8803 42.5498 22.4133V28.0469H43.7705V30H37.9111V28.0469H39.1318V16.8164H37.9111V14.8633H42.5498V20.4358C42.6963 20.1632 42.8692 19.917 43.0686 19.6973C43.268 19.4775 43.504 19.2782 43.7766 19.0991C44.0492 18.916 44.3707 18.7756 44.741 18.678C45.1153 18.5763 45.5243 18.5254 45.9678 18.5254ZM61.8369 22.6453V28.0469H63.0576V30H59.2551L58.7119 28.7305C58.2969 29.3245 57.8147 29.7314 57.2654 29.9512C56.7201 30.1709 55.9572 30.2808 54.9766 30.2808C54.4679 30.2808 53.9939 30.1912 53.5544 30.0122C53.1191 29.8372 52.7467 29.5972 52.4375 29.292C52.1323 28.9868 51.8923 28.6206 51.7173 28.1934C51.5464 27.7661 51.4609 27.3083 51.4609 26.8201C51.4609 25.9778 51.7905 25.2799 52.4497 24.7266C53.1089 24.1691 53.9512 23.8904 54.9766 23.8904C55.8026 23.8904 56.4862 23.9697 57.0273 24.1284C57.5685 24.283 58.0324 24.5312 58.4189 24.873V22.2852C58.4189 21.9189 58.3681 21.6138 58.2664 21.3696C58.1687 21.1214 58.0202 20.9322 57.8208 20.802C57.6214 20.6677 57.3976 20.5741 57.1494 20.5212C56.9012 20.4683 56.6042 20.4419 56.2583 20.4419C55.9816 20.4419 55.7314 20.5009 55.5076 20.6189C55.6337 20.8834 55.6968 21.1621 55.6968 21.4551C55.6968 21.9963 55.5055 22.4581 55.123 22.8406C54.7446 23.219 54.2848 23.4082 53.7437 23.4082C53.2025 23.4082 52.7406 23.219 52.3582 22.8406C51.9797 22.4581 51.7905 21.9963 51.7905 21.4551C51.7905 21.1784 51.8434 20.918 51.9492 20.6738C52.0591 20.4297 52.2096 20.2161 52.4009 20.033C52.5636 19.8621 52.7325 19.7095 52.9075 19.5752C53.0824 19.4368 53.3022 19.3005 53.5667 19.1663C53.8352 19.0279 54.1261 18.914 54.4395 18.8245C54.7528 18.7349 55.1271 18.6637 55.5625 18.6108C56.002 18.5539 56.4821 18.5254 57.0029 18.5254C57.6784 18.5254 58.3132 18.6251 58.9072 18.8245C59.5013 19.0238 60.014 19.3005 60.4453 19.6545C60.8766 20.0085 61.2164 20.4439 61.4646 20.9607C61.7128 21.4775 61.8369 22.039 61.8369 22.6453ZM58.4189 27.29V26.4478C58.1667 26.2077 57.8818 26.0063 57.5645 25.8435C57.2511 25.6767 56.9602 25.5933 56.6917 25.5933C56.1139 25.5933 55.7069 25.6909 55.4709 25.8862C55.2349 26.0775 55.1169 26.3888 55.1169 26.8201C55.1169 27.3368 55.2187 27.7173 55.4221 27.9614C55.6256 28.2056 56.004 28.3276 56.5574 28.3276C56.8707 28.3276 57.1962 28.2279 57.5339 28.0286C57.8757 27.8251 58.1707 27.5789 58.4189 27.29Z" fill="black"></path></g><g style="mix-blend-mode:multiply" filter="url(#filter1_d_39_87)"><path d="M76.9863 22.6453V28.0469H78.207V30H74.4045L73.8613 28.7305C73.4463 29.3245 72.9641 29.7314 72.4148 29.9512C71.8695 30.1709 71.1066 30.2808 70.126 30.2808C69.6174 30.2808 69.1433 30.1912 68.7039 30.0122C68.2685 29.8372 67.8962 29.5972 67.5869 29.292C67.2817 28.9868 67.0417 28.6206 66.8667 28.1934C66.6958 27.7661 66.6104 27.3083 66.6104 26.8201C66.6104 25.9778 66.9399 25.2799 67.5991 24.7266C68.2583 24.1691 69.1006 23.8904 70.126 23.8904C70.952 23.8904 71.6356 23.9697 72.1768 24.1284C72.7179 24.283 73.1818 24.5312 73.5684 24.873V22.2852C73.5684 21.9189 73.5175 21.6138 73.4158 21.3696C73.3181 21.1214 73.1696 20.9322 72.9702 20.802C72.7708 20.6677 72.547 20.5741 72.2988 20.5212C72.0506 20.4683 71.7536 20.4419 71.4077 20.4419C71.131 20.4419 70.8808 20.5009 70.657 20.6189C70.7831 20.8834 70.8462 21.1621 70.8462 21.4551C70.8462 21.9963 70.6549 22.4581 70.2725 22.8406C69.894 23.219 69.4342 23.4082 68.8931 23.4082C68.3519 23.4082 67.8901 23.219 67.5076 22.8406C67.1292 22.4581 66.9399 21.9963 66.9399 21.4551C66.9399 21.1784 66.9928 20.918 67.0986 20.6738C67.2085 20.4297 67.359 20.2161 67.5503 20.033C67.7131 19.8621 67.8819 19.7095 68.0569 19.5752C68.2319 19.4368 68.4516 19.3005 68.7161 19.1663C68.9846 19.0279 69.2756 18.914 69.5889 18.8245C69.9022 18.7349 70.2765 18.6637 70.7119 18.6108C71.1514 18.5539 71.6315 18.5254 72.1523 18.5254C72.8278 18.5254 73.4626 18.6251 74.0566 18.8245C74.6507 19.0238 75.1634 19.3005 75.5947 19.6545C76.026 20.0085 76.3658 20.4439 76.614 20.9607C76.8622 21.4775 76.9863 22.039 76.9863 22.6453ZM73.5684 27.29V26.4478C73.3161 26.2077 73.0312 26.0063 72.7139 25.8435C72.4006 25.6767 72.1096 25.5933 71.8411 25.5933C71.2633 25.5933 70.8564 25.6909 70.6204 25.8862C70.3844 26.0775 70.2664 26.3888 70.2664 26.8201C70.2664 27.3368 70.3681 27.7173 70.5715 27.9614C70.775 28.2056 71.1534 28.3276 71.7068 28.3276C72.0201 28.3276 72.3456 28.2279 72.6833 28.0286C73.0251 27.8251 73.3201 27.5789 73.5684 27.29ZM94.4424 18.5254C95.012 18.5254 95.5105 18.6027 95.9377 18.7573C96.365 18.9119 96.7149 19.1256 96.9875 19.3982C97.2602 19.6667 97.4799 20.0106 97.6467 20.4297C97.8176 20.8447 97.9356 21.2923 98.0007 21.7725C98.0699 22.2485 98.1045 22.7938 98.1045 23.4082V28.0469H99.3252V30H93.4658V28.0469H94.6865V23.1641C94.6865 22.5212 94.6275 22.0207 94.5095 21.6626C94.3956 21.3045 94.2288 21.0583 94.009 20.9241C93.7934 20.7898 93.4984 20.7227 93.124 20.7227C92.7741 20.7227 92.414 20.8752 92.0437 21.1804C91.6734 21.4856 91.3235 21.9128 90.9939 22.4622C91.0142 22.7551 91.0244 23.0705 91.0244 23.4082V28.0469H92.2451V30H86.3857V28.0469H87.6064V23.1641C87.6064 22.5212 87.5474 22.0207 87.4294 21.6626C87.3155 21.3045 87.1487 21.0583 86.929 20.9241C86.7133 20.7898 86.4183 20.7227 86.0439 20.7227C85.7021 20.7227 85.3522 20.8671 84.9941 21.156C84.6361 21.4449 84.2963 21.8477 83.9749 22.3645L83.9443 28.0469H85.165V30H79.3057V28.0469H80.5264V20.7227H79.3057V18.7695H83.0959L83.9504 20.4236C84.101 20.151 84.2739 19.9068 84.4692 19.6912C84.6686 19.4714 84.9046 19.2721 85.1772 19.093C85.4539 18.9099 85.7774 18.7695 86.1477 18.6719C86.518 18.5742 86.9229 18.5254 87.3623 18.5254C87.8547 18.5254 88.2941 18.5824 88.6807 18.6963C89.0672 18.8062 89.3948 18.9709 89.6633 19.1907C89.936 19.4063 90.1618 19.6647 90.3408 19.9658C90.5199 20.2629 90.6623 20.6087 90.7681 21.0034C90.8698 20.7389 90.9878 20.4907 91.1221 20.2588C91.2604 20.0269 91.4354 19.8031 91.647 19.5874C91.8586 19.3677 92.0925 19.1825 92.3489 19.032C92.6093 18.8774 92.9185 18.7553 93.2766 18.6658C93.6347 18.5722 94.0233 18.5254 94.4424 18.5254ZM103.585 25.1172C103.622 25.5892 103.699 26.0103 103.817 26.3806C103.935 26.7509 104.078 27.054 104.245 27.29C104.416 27.526 104.613 27.7214 104.837 27.876C105.06 28.0265 105.29 28.1344 105.526 28.1995C105.762 28.2605 106.015 28.291 106.283 28.291C107.142 28.291 107.811 28.1262 108.291 27.7966C108.775 27.463 109.162 26.9503 109.451 26.2585L111.074 26.8201C110.928 27.2148 110.741 27.5871 110.513 27.937C110.289 28.2829 110.019 28.6023 109.701 28.8953C109.384 29.1882 109.03 29.4405 108.639 29.6521C108.253 29.8596 107.815 30.0224 107.327 30.1404C106.839 30.2584 106.324 30.3174 105.783 30.3174C104.981 30.3174 104.222 30.177 103.506 29.8962C102.794 29.6155 102.174 29.2249 101.645 28.7244C101.12 28.2198 100.703 27.5993 100.393 26.8628C100.088 26.1263 99.9355 25.3247 99.9355 24.458C99.9355 23.5913 100.088 22.7856 100.393 22.041C100.703 21.2964 101.12 20.6698 101.645 20.1611C102.174 19.6484 102.794 19.2476 103.506 18.9587C104.222 18.6698 104.981 18.5254 105.783 18.5254C106.584 18.5254 107.341 18.6698 108.053 18.9587C108.769 19.2476 109.39 19.6484 109.915 20.1611C110.444 20.6698 110.861 21.2964 111.166 22.041C111.475 22.7856 111.63 23.5913 111.63 24.458L111.477 25.1172H103.585ZM103.628 23.1641H107.937C107.831 22.2282 107.597 21.5466 107.235 21.1194C106.873 20.6921 106.393 20.4785 105.795 20.4785C105.498 20.4785 105.231 20.5273 104.995 20.625C104.759 20.7186 104.548 20.8712 104.361 21.0828C104.173 21.2903 104.017 21.569 103.891 21.9189C103.769 22.2648 103.681 22.6799 103.628 23.1641ZM117.117 30.2808C116.165 30.2808 115.357 30.0366 114.694 29.5483C114.031 29.0601 113.536 28.3785 113.211 27.5037C112.889 26.6288 112.729 25.5872 112.729 24.3787C112.729 23.4957 112.842 22.688 113.07 21.9556C113.302 21.2231 113.624 20.6067 114.035 20.1062C114.45 19.6016 114.948 19.2131 115.53 18.9404C116.116 18.6637 116.757 18.5254 117.453 18.5254C117.803 18.5254 118.132 18.5579 118.441 18.623C118.751 18.6841 119.013 18.7614 119.229 18.855C119.448 18.9486 119.656 19.0645 119.851 19.2029C120.047 19.3412 120.203 19.4714 120.321 19.5935C120.443 19.7156 120.561 19.8519 120.675 20.0024V16.8164H119.455V14.8633H124.093V28.0469H125.314V30H121.688L120.95 28.584C120.791 28.8037 120.612 29.0051 120.413 29.1882C119.607 29.9166 118.509 30.2808 117.117 30.2808ZM120.675 22.0715C120.211 21.217 119.581 20.7898 118.783 20.7898C117.978 20.7898 117.377 21.1051 116.983 21.7358C116.592 22.3665 116.397 23.2617 116.397 24.4214C116.397 24.9666 116.46 25.4712 116.586 25.9351C116.716 26.3949 116.887 26.7773 117.099 27.0825C117.314 27.3877 117.56 27.6257 117.837 27.7966C118.114 27.9635 118.403 28.0469 118.704 28.0469C119.111 28.0469 119.471 27.935 119.784 27.7112C120.102 27.4833 120.399 27.1476 120.675 26.7041V22.0715ZM143.515 22.6453V28.0469H144.735V30H140.933L140.39 28.7305C139.975 29.3245 139.492 29.7314 138.943 29.9512C138.398 30.1709 137.635 30.2808 136.654 30.2808C136.146 30.2808 135.672 30.1912 135.232 30.0122C134.797 29.8372 134.424 29.5972 134.115 29.292C133.81 28.9868 133.57 28.6206 133.395 28.1934C133.224 27.7661 133.139 27.3083 133.139 26.8201C133.139 25.9778 133.468 25.2799 134.127 24.7266C134.787 24.1691 135.629 23.8904 136.654 23.8904C137.48 23.8904 138.164 23.9697 138.705 24.1284C139.246 24.283 139.71 24.5312 140.097 24.873V22.2852C140.097 21.9189 140.046 21.6138 139.944 21.3696C139.846 21.1214 139.698 20.9322 139.499 20.802C139.299 20.6677 139.075 20.5741 138.827 20.5212C138.579 20.4683 138.282 20.4419 137.936 20.4419C137.659 20.4419 137.409 20.5009 137.185 20.6189C137.311 20.8834 137.375 21.1621 137.375 21.4551C137.375 21.9963 137.183 22.4581 136.801 22.8406C136.422 23.219 135.963 23.4082 135.421 23.4082C134.88 23.4082 134.418 23.219 134.036 22.8406C133.657 22.4581 133.468 21.9963 133.468 21.4551C133.468 21.1784 133.521 20.918 133.627 20.6738C133.737 20.4297 133.887 20.2161 134.079 20.033C134.241 19.8621 134.41 19.7095 134.585 19.5752C134.76 19.4368 134.98 19.3005 135.244 19.1663C135.513 19.0279 135.804 18.914 136.117 18.8245C136.431 18.7349 136.805 18.6637 137.24 18.6108C137.68 18.5539 138.16 18.5254 138.681 18.5254C139.356 18.5254 139.991 18.6251 140.585 18.8245C141.179 19.0238 141.692 19.3005 142.123 19.6545C142.554 20.0085 142.894 20.4439 143.142 20.9607C143.391 21.4775 143.515 22.039 143.515 22.6453ZM140.097 27.29V26.4478C139.844 26.2077 139.56 26.0063 139.242 25.8435C138.929 25.6767 138.638 25.5933 138.369 25.5933C137.792 25.5933 137.385 25.6909 137.149 25.8862C136.913 26.0775 136.795 26.3888 136.795 26.8201C136.795 27.3368 136.896 27.7173 137.1 27.9614C137.303 28.2056 137.682 28.3276 138.235 28.3276C138.548 28.3276 138.874 28.2279 139.212 28.0286C139.553 27.8251 139.848 27.5789 140.097 27.29ZM145.834 14.8633H150.473V28.0469H151.693V30H145.834V28.0469H147.055V16.8164H145.834V14.8633ZM154.214 17.4695C153.836 17.087 153.646 16.6252 153.646 16.084C153.646 15.5428 153.836 15.083 154.214 14.7046C154.597 14.3221 155.058 14.1309 155.6 14.1309C156.141 14.1309 156.601 14.3221 156.979 14.7046C157.361 15.083 157.553 15.5428 157.553 16.084C157.553 16.6252 157.361 17.087 156.979 17.4695C156.601 17.8479 156.141 18.0371 155.6 18.0371C155.058 18.0371 154.597 17.8479 154.214 17.4695ZM152.67 18.7695H157.309V28.0469H158.529V30H152.67V28.0469H153.891V20.7227H152.67V18.7695Z" fill="black"></path></g><defs><filter id="filter0_d_39_87" x="0" y="0" width="60" height="59" filterUnits="userSpaceOnUse" color-interpolation-filters="sRGB"><feFlood flood-opacity="0" result="BackgroundImageFix"></feFlood><feColorMatrix in="SourceAlpha" type="matrix" values="0 0 0 0 0 0 0 0 0 0 0 0 0 0 0 0 0 0 127 0" result="hardAlpha"></feColorMatrix><feOffset dy="4"></feOffset><feGaussianBlur stdDeviation="2"></feGaussianBlur><feComposite in2="hardAlpha" operator="out"></feComposite><feColorMatrix type="matrix" values="0 0 0 0 0 0 0 0 0 0 0 0 0 0 0 0 0 0 0.25 0"></feColorMatrix><feBlend mode="normal" in2="BackgroundImageFix" result="effect1_dropShadow_39_87"></feBlend><feBlend mode="normal" in="SourceGraphic" in2="effect1_dropShadow_39_87" result="shape"></feBlend></filter><filter id="filter1_d_39_87" x="62.6104" y="14.1309" width="99.9189" height="36.1865" filterUnits="userSpaceOnUse" color-interpolation-filters="sRGB"><feFlood flood-opacity="0" result="BackgroundImageFix"></feFlood><feColorMatrix in="SourceAlpha" type="matrix" values="0 0 0 0 0 0 0 0 0 0 0 0 0 0 0 0 0 0 127 0" result="hardAlpha"></feColorMatrix><feOffset dy="16"></feOffset><feGaussianBlur stdDeviation="2"></feGaussianBlur><feComposite in2="hardAlpha" operator="out"></feComposite><feColorMatrix type="matrix" values="0 0 0 0 0 0 0 0 0 0 0 0 0 0 0 0 0 0 0.25 0"></feColorMatrix><feBlend mode="normal" in2="BackgroundImageFix" result="effect1_dropShadow_39_87"></feBlend><feBlend mode="normal" in="SourceGraphic" in2="effect1_dropShadow_39_87" result="shape"></feBlend></filter></defs></svg> 