<svg xmlns="http://www.w3.org/2000/svg" width="500.000000pt" height="500.000000pt" viewBox="0 0 500.000000 500.000000" preserveAspectRatio="xMidYMid meet"><g transform="translate(0.000000,500.000000) scale(0.100000,-0.100000)" fill="#000000" stroke="none"><path d="M2745 3800 c-71 -4 -319 -11 -550 -15 l-420 -8 -130 -69 c-71 -38 -134 -74 -140 -79 -5 -5 38 -9 113 -9 l122 0 0 -448 0 -448 -80 -39 c-91 -44 -88 -53 17 -54 l62 -1 3 -85 3 -86 105 97 c128 118 190 165 272 210 l63 34 -77 0 -78 0 0 410 0 410 38 0 c20 0 159 5 309 11 149 6 282 9 296 5 30 -7 42 -33 25 -54 -16 -19 -20 -22 134 78 64 41 130 83 147 92 38 21 39 35 5 48 -27 11 -36 11 -239 0z"></path><path d="M2650 2809 c0 -6 12 -30 26 -54 l26 -44 51 29 c62 35 79 56 57 70 -21 14 -160 13 -160 -1z"></path><path d="M2570 2745 c-36 -7 -126 -17 -200 -22 -124 -9 -141 -12 -202 -43 -79 -39 -180 -124 -138 -115 14 3 57 10 95 14 85 11 77 19 202 -190 l88 -148 147 -1 147 0 -120 201 c-67 110 -119 202 -118 203 2 2 22 13 44 24 46 23 145 93 130 91 -6 -1 -39 -7 -75 -14z"></path><path d="M3708 2744 c-3 -3 -80 -9 -169 -15 -190 -11 -243 -20 -312 -55 -50 -25 -151 -94 -145 -99 2 -1 54 2 116 8 62 5 115 7 119 4 8 -9 -30 -111 -88 -236 -27 -57 -49 -105 -49 -107 0 -2 24 -4 53 -4 62 0 48 -17 161 207 l84 168 59 23 c59 22 207 111 187 112 -6 0 -13 -3 -16 -6z"></path><path d="M1871 2439 c-57 -10 -110 -20 -118 -23 -9 -4 -13 -29 -13 -91 l0 -85 145 0 145 0 0 110 0 110 -27 -1 c-16 -1 -75 -9 -132 -20z"></path><path d="M1785 2163 l-50 -4 3 -99 3 -100 47 2 c40 1 42 2 12 5 -35 4 -35 4 -32 48 3 38 7 45 26 45 11 0 28 5 36 10 11 7 5 10 -22 10 -37 0 -38 1 -38 35 0 33 2 35 34 35 19 0 38 5 41 10 3 6 3 9 -2 8 -4 -1 -30 -3 -58 -5z"></path><path d="M2175 2161 c-17 -7 -16 -9 10 -13 35 -7 53 1 34 13 -16 10 -18 10 -44 0z"></path><path d="M3144 2163 c-21 -4 -21 -6 12 -60 25 -41 34 -69 34 -100 0 -38 3 -43 23 -42 12 0 16 3 10 6 -26 10 -15 80 22 138 33 51 34 55 15 55 -12 0 -18 -4 -15 -10 3 -5 -3 -26 -13 -47 l-19 -37 -27 42 c-15 24 -24 47 -21 52 4 6 5 9 3 9 -2 -1 -13 -4 -24 -6z"></path><path d="M1971 2147 c-6 -8 -24 -47 -41 -87 -17 -40 -35 -79 -41 -87 -9 -10 -7 -13 10 -13 12 0 20 4 16 9 -9 16 16 59 39 65 37 10 43 7 55 -34 6 -22 18 -40 26 -40 16 0 29 17 16 22 -5 1 -20 42 -35 91 -15 48 -28 87 -30 87 -2 0 -9 -6 -15 -13z m18 -84 c1 -7 -10 -13 -24 -13 l-26 0 17 32 c16 30 18 31 25 13 4 -11 8 -26 8 -32z"></path><path d="M2266 2152 c5 -4 24 -30 41 -58 26 -43 30 -59 26 -93 -5 -35 -3 -41 13 -41 16 0 19 6 16 44 -3 34 3 55 28 100 l32 56 -24 -1 c-12 0 -17 -3 -11 -6 9 -3 7 -15 -8 -46 l-21 -41 -24 40 c-13 21 -24 42 -24 47 0 4 -12 7 -27 7 -16 0 -23 -4 -17 -8z"></path><path d="M2568 2148 c5 -7 22 -52 38 -101 33 -101 37 -101 83 7 16 37 31 64 33 60 3 -5 15 -42 28 -81 13 -40 27 -73 31 -73 5 0 13 9 19 19 12 24 13 42 1 22 -6 -10 -17 12 -37 73 -24 73 -31 86 -50 86 -17 0 -21 -4 -17 -20 6 -21 -34 -140 -47 -140 -8 0 -46 128 -44 148 1 7 -9 12 -23 12 -19 0 -23 -3 -15 -12z"></path><path d="M2839 2151 c11 -7 11 -16 -2 -52 -27 -79 -28 -85 -3 -34 14 28 25 58 25 67 1 9 7 19 14 21 6 3 -1 6 -18 6 -21 0 -26 -2 -16 -8z"></path><path d="M2991 2147 c-6 -8 -24 -47 -41 -87 -17 -40 -35 -79 -41 -87 -9 -10 -7 -13 10 -13 12 0 20 4 16 9 -9 16 16 59 39 65 37 10 43 7 55 -34 6 -22 18 -40 26 -40 16 0 29 17 16 22 -5 1 -20 42 -35 91 -15 48 -28 87 -30 87 -2 0 -9 -6 -15 -13z m18 -84 c1 -7 -10 -13 -24 -13 l-26 0 17 32 c16 30 18 31 25 13 4 -11 8 -26 8 -32z"></path><path d="M2127 2132 c-27 -29 -20 -49 25 -79 24 -16 44 -36 46 -45 5 -25 -35 -43 -64 -29 -16 7 -25 7 -30 0 -17 -28 47 -29 84 -2 42 31 40 58 -8 88 -47 29 -58 49 -40 70 18 21 6 19 -13 -3z"></path><path d="M1747 1873 c-4 -3 -7 -34 -7 -67 0 -69 -22 -171 -46 -219 -9 -18 -32 -52 -52 -76 l-35 -43 29 6 c70 15 288 26 524 26 259 0 387 9 457 34 37 13 38 14 38 62 l0 49 -380 5 c-209 3 -375 6 -369 8 21 4 77 68 95 107 10 22 19 57 19 78 l0 37 -133 0 c-74 0 -137 -3 -140 -7z"></path><path d="M2640 1871 c0 -5 27 -56 60 -114 l60 -104 -10 -289 c-12 -331 -20 -402 -50 -444 l-21 -30 93 0 c120 0 215 14 308 45 84 28 217 100 165 90 -57 -11 -315 -18 -315 -8 0 5 6 15 12 21 10 10 15 108 21 370 l8 357 40 52 c21 29 39 55 39 58 0 13 -79 4 -91 -11 -11 -14 -13 -14 -21 0 -8 13 -33 16 -153 16 -80 0 -145 -4 -145 -9z"></path></g></svg>