<?xml version="1.0" encoding="UTF-8"?> <svg xmlns="http://www.w3.org/2000/svg" xmlns:xlink="http://www.w3.org/1999/xlink" width="226.607" height="226.007" viewBox="0 0 226.607 226.007"><defs><linearGradient id="linear-gradient" y1="0.5" x2="1" y2="0.5" gradientUnits="objectBoundingBox"><stop offset="0" stop-color="#df44c6"></stop><stop offset="1" stop-color="#7f3fd9"></stop></linearGradient><linearGradient id="linear-gradient-2" x1="0" y1="0.5" x2="1" y2="0.5" xlink:href="#linear-gradient"></linearGradient><linearGradient id="linear-gradient-3" x1="0" y1="0.5" x2="1" y2="0.5" xlink:href="#linear-gradient"></linearGradient><linearGradient id="linear-gradient-5" x1="0" y1="0.5" x2="1" y2="0.5" xlink:href="#linear-gradient"></linearGradient><linearGradient id="linear-gradient-6" x1="0" y1="0.5" x2="1" y2="0.5" xlink:href="#linear-gradient"></linearGradient><linearGradient id="linear-gradient-7" x1="0" y1="0.5" x2="1" y2="0.5" xlink:href="#linear-gradient"></linearGradient><linearGradient id="linear-gradient-8" x1="0" y1="0.5" x2="1" y2="0.5" xlink:href="#linear-gradient"></linearGradient><linearGradient id="linear-gradient-10" x1="0" y1="0.5" x2="1" y2="0.5" xlink:href="#linear-gradient"></linearGradient><linearGradient id="linear-gradient-11" x1="0" y1="0.5" x2="1" y2="0.5" xlink:href="#linear-gradient"></linearGradient><linearGradient id="linear-gradient-15" x1="0" y1="0.5" x2="1" y2="0.5" xlink:href="#linear-gradient"></linearGradient><linearGradient id="linear-gradient-16" x1="0" y1="0.5" x2="1" y2="0.5" xlink:href="#linear-gradient"></linearGradient><linearGradient id="linear-gradient-17" x1="0" y1="0.5" x2="1" y2="0.5" xlink:href="#linear-gradient"></linearGradient><linearGradient id="linear-gradient-18" x1="0" y1="0.5" x2="1" y2="0.5" xlink:href="#linear-gradient"></linearGradient><linearGradient id="linear-gradient-19" x1="0" y1="0.5" x2="1" y2="0.5" xlink:href="#linear-gradient"></linearGradient><linearGradient id="linear-gradient-20" x1="0" y1="0.5" x2="1" y2="0.5" xlink:href="#linear-gradient"></linearGradient><linearGradient id="linear-gradient-22" x1="0" y1="0.5" x2="1" y2="0.5" xlink:href="#linear-gradient"></linearGradient><linearGradient id="linear-gradient-26" x1="0" y1="0.5" x2="1" y2="0.5" xlink:href="#linear-gradient"></linearGradient><linearGradient id="linear-gradient-28" x1="0" y1="0.5" x2="1" y2="0.5" xlink:href="#linear-gradient"></linearGradient><linearGradient id="linear-gradient-29" x1="0" y1="0.5" x2="1" y2="0.5" xlink:href="#linear-gradient"></linearGradient><linearGradient id="linear-gradient-31" x1="0" y1="0.5" x2="1" y2="0.5" xlink:href="#linear-gradient"></linearGradient><linearGradient id="linear-gradient-32" x1="0" y1="0.5" x2="1" y2="0.5" xlink:href="#linear-gradient"></linearGradient><linearGradient id="linear-gradient-33" x1="0" y1="0.5" x2="1" y2="0.5" xlink:href="#linear-gradient"></linearGradient><linearGradient id="linear-gradient-56" x1="0" y1="0.5" x2="1" y2="0.5" xlink:href="#linear-gradient"></linearGradient><linearGradient id="linear-gradient-57" x1="0" y1="0.5" x2="1" y2="0.5" xlink:href="#linear-gradient"></linearGradient><linearGradient id="linear-gradient-73" x1="0" y1="0.5" x2="1" y2="0.5" xlink:href="#linear-gradient"></linearGradient><linearGradient id="linear-gradient-76" x1="0" y1="0.5" x2="1" y2="0.5" xlink:href="#linear-gradient"></linearGradient><linearGradient id="linear-gradient-86" x1="0" y1="0.5" x2="1" y2="0.5" xlink:href="#linear-gradient"></linearGradient><linearGradient id="linear-gradient-87" x1="0" y1="0.5" x2="1" y2="0.5" xlink:href="#linear-gradient"></linearGradient><linearGradient id="linear-gradient-89" x1="0" y1="0.5" x2="1" y2="0.5" xlink:href="#linear-gradient"></linearGradient><linearGradient id="linear-gradient-106" x1="0" y1="0.5" x2="1" y2="0.5" xlink:href="#linear-gradient"></linearGradient><linearGradient id="linear-gradient-125" x1="0" y1="0.5" x2="1" y2="0.5" xlink:href="#linear-gradient"></linearGradient><linearGradient id="linear-gradient-143" x1="0" y1="0.5" x2="1" y2="0.5" xlink:href="#linear-gradient"></linearGradient><linearGradient id="linear-gradient-162" x1="0" y1="0.5" x2="1" y2="0.5" xlink:href="#linear-gradient"></linearGradient><linearGradient id="linear-gradient-175" x1="0" y1="0.5" x2="1" y2="0.5" xlink:href="#linear-gradient"></linearGradient><linearGradient id="linear-gradient-176" x1="0" y1="0.5" x2="1" y2="0.5" xlink:href="#linear-gradient"></linearGradient><linearGradient id="linear-gradient-178" x1="0" y1="0.5" x2="1" y2="0.5" xlink:href="#linear-gradient"></linearGradient><linearGradient id="linear-gradient-196" x1="0" y1="0.5" x2="1" y2="0.5" xlink:href="#linear-gradient"></linearGradient><linearGradient id="linear-gradient-269" x1="0" y1="0.5" x2="1" y2="0.5" xlink:href="#linear-gradient"></linearGradient><linearGradient id="linear-gradient-278" x1="0" y1="0.5" x2="1" y2="0.5" xlink:href="#linear-gradient"></linearGradient></defs><g id="Group_33" data-name="Group 33" opacity="0.5"><g id="Group_10" data-name="Group 10" transform="translate(0 0)"><path id="Path_24" data-name="Path 24" d="M469.767,725.556a2.407,2.407,0,0,0-2.293,1.684,2.31,2.31,0,0,0-.114.725,2.408,2.408,0,1,0,4.816,0,2.382,2.382,0,0,0-.5-1.461A2.408,2.408,0,0,0,469.767,725.556Z" transform="translate(-376.033 -725.556)" fill="url(#linear-gradient)"></path><path id="Path_25" data-name="Path 25" d="M462.8,727.989c-1,.276-1.986.567-2.973.87a2.415,2.415,0,0,0,2.973-.87Z" transform="translate(-380.102 -724.243)" fill="url(#linear-gradient-2)"></path><path id="Path_26" data-name="Path 26" d="M478.242,725.556a2.409,2.409,0,1,0,2.408,2.41A2.408,2.408,0,0,0,478.242,725.556Z" transform="translate(-371.461 -725.556)" fill="url(#linear-gradient-3)"></path><path id="Path_27" data-name="Path 27" d="M486.716,725.556a2.409,2.409,0,1,0,2.408,2.41A2.408,2.408,0,0,0,486.716,725.556Z" transform="translate(-366.887 -725.556)" fill="url(#linear-gradient)"></path><path id="Path_28" data-name="Path 28" d="M493.254,726.191a2.407,2.407,0,1,0,4.342,1.432,2.5,2.5,0,0,0-.1-.684Q495.387,726.526,493.254,726.191Z" transform="translate(-362.314 -725.213)" fill="url(#linear-gradient-5)"></path><path id="Path_29" data-name="Path 29" d="M503.5,729.036a2.376,2.376,0,0,0,.879-.168q-1.409-.434-2.83-.835A2.393,2.393,0,0,0,503.5,729.036Z" transform="translate(-357.58 -724.219)" fill="url(#linear-gradient-6)"></path><path id="Path_30" data-name="Path 30" d="M446.139,734.958q-1.58.9-3.133,1.857a2.439,2.439,0,0,0,.765.126A2.4,2.4,0,0,0,446.139,734.958Z" transform="translate(-389.178 -720.482)" fill="url(#linear-gradient-7)"></path><path id="Path_31" data-name="Path 31" d="M452.822,733.117a2.409,2.409,0,1,0,2.408,2.41A2.409,2.409,0,0,0,452.822,733.117Z" transform="translate(-385.18 -721.475)" fill="url(#linear-gradient-8)"></path><path id="Path_32" data-name="Path 32" d="M461.3,733.117a2.409,2.409,0,1,0,2.407,2.41A2.407,2.407,0,0,0,461.3,733.117Z" transform="translate(-380.606 -721.475)" fill="url(#linear-gradient-5)"></path><path id="Path_33" data-name="Path 33" d="M469.767,733.117a2.409,2.409,0,1,0,2.41,2.41A2.409,2.409,0,0,0,469.767,733.117Z" transform="translate(-376.033 -721.475)" fill="url(#linear-gradient-10)"></path><path id="Path_34" data-name="Path 34" d="M478.242,733.117a2.409,2.409,0,1,0,2.408,2.41A2.409,2.409,0,0,0,478.242,733.117Z" transform="translate(-371.461 -721.475)" fill="url(#linear-gradient-11)"></path><path id="Path_35" data-name="Path 35" d="M486.716,733.117a2.409,2.409,0,1,0,2.408,2.41A2.409,2.409,0,0,0,486.716,733.117Z" transform="translate(-366.887 -721.475)" fill="url(#linear-gradient-10)"></path><path id="Path_36" data-name="Path 36" d="M495.187,733.117a2.409,2.409,0,1,0,2.41,2.41A2.409,2.409,0,0,0,495.187,733.117Z" transform="translate(-362.314 -721.475)" fill="url(#linear-gradient-5)"></path><path id="Path_37" data-name="Path 37" d="M503.662,733.117a2.409,2.409,0,1,0,2.41,2.41A2.409,2.409,0,0,0,503.662,733.117Z" transform="translate(-357.741 -721.475)" fill="url(#linear-gradient-10)"></path><path id="Path_38" data-name="Path 38" d="M512.135,733.117a2.409,2.409,0,1,0,2.407,2.41A2.408,2.408,0,0,0,512.135,733.117Z" transform="translate(-353.167 -721.475)" fill="url(#linear-gradient-15)"></path><path id="Path_39" data-name="Path 39" d="M520.584,736.9a2.415,2.415,0,0,0,.63-.086q-1.471-.905-2.972-1.768A2.41,2.41,0,0,0,520.584,736.9Z" transform="translate(-348.571 -720.436)" fill="url(#linear-gradient-16)"></path><path id="Path_40" data-name="Path 40" d="M437.3,741.031q-1.859,1.457-3.648,2.993a2.408,2.408,0,1,0,3.648-2.993Z" transform="translate(-394.228 -717.204)" fill="url(#linear-gradient-17)"></path><path id="Path_41" data-name="Path 41" d="M444.347,740.679a2.408,2.408,0,1,0,2.408,2.408A2.407,2.407,0,0,0,444.347,740.679Z" transform="translate(-389.753 -717.394)" fill="url(#linear-gradient-18)"></path><path id="Path_42" data-name="Path 42" d="M452.822,740.679a2.408,2.408,0,1,0,2.408,2.408A2.408,2.408,0,0,0,452.822,740.679Z" transform="translate(-385.18 -717.394)" fill="url(#linear-gradient-19)"></path><path id="Path_43" data-name="Path 43" d="M461.3,740.679a2.408,2.408,0,1,0,2.407,2.408A2.406,2.406,0,0,0,461.3,740.679Z" transform="translate(-380.606 -717.394)" fill="url(#linear-gradient-20)"></path><path id="Path_44" data-name="Path 44" d="M469.767,740.679a2.408,2.408,0,1,0,2.41,2.408A2.407,2.407,0,0,0,469.767,740.679Z" transform="translate(-376.033 -717.394)" fill="url(#linear-gradient-17)"></path><path id="Path_45" data-name="Path 45" d="M478.242,740.679a2.408,2.408,0,1,0,2.408,2.408A2.408,2.408,0,0,0,478.242,740.679Z" transform="translate(-371.461 -717.394)" fill="url(#linear-gradient-22)"></path><path id="Path_46" data-name="Path 46" d="M486.716,740.679a2.408,2.408,0,1,0,2.408,2.408A2.408,2.408,0,0,0,486.716,740.679Z" transform="translate(-366.887 -717.394)" fill="url(#linear-gradient-17)"></path><path id="Path_47" data-name="Path 47" d="M495.187,740.679a2.408,2.408,0,1,0,2.41,2.408A2.407,2.407,0,0,0,495.187,740.679Z" transform="translate(-362.314 -717.394)" fill="url(#linear-gradient-20)"></path><path id="Path_48" data-name="Path 48" d="M503.662,740.679a2.408,2.408,0,1,0,2.41,2.408A2.408,2.408,0,0,0,503.662,740.679Z" transform="translate(-357.741 -717.394)" fill="url(#linear-gradient-17)"></path><path id="Path_49" data-name="Path 49" d="M512.135,740.679a2.408,2.408,0,1,0,2.407,2.408A2.407,2.407,0,0,0,512.135,740.679Z" transform="translate(-353.167 -717.394)" fill="url(#linear-gradient-26)"></path><path id="Path_50" data-name="Path 50" d="M520.608,740.679a2.408,2.408,0,1,0,2.41,2.408A2.41,2.41,0,0,0,520.608,740.679Z" transform="translate(-348.595 -717.394)" fill="url(#linear-gradient-17)"></path><path id="Path_51" data-name="Path 51" d="M529.081,745.276a2.4,2.4,0,0,0,2.06-1.167q-1.806-1.55-3.677-3.024a2.407,2.407,0,0,0,1.617,4.191Z" transform="translate(-344.021 -717.175)" fill="url(#linear-gradient-28)"></path><path id="Path_52" data-name="Path 52" d="M425.58,752.279a2.409,2.409,0,0,0,3.21-3.581Q427.148,750.456,425.58,752.279Z" transform="translate(-398.583 -713.066)" fill="url(#linear-gradient-29)"></path><path id="Path_53" data-name="Path 53" d="M435.876,748.239a2.408,2.408,0,1,0,2.41,2.408A2.411,2.411,0,0,0,435.876,748.239Z" transform="translate(-394.326 -713.314)" fill="url(#linear-gradient)"></path><path id="Path_54" data-name="Path 54" d="M444.347,748.239a2.408,2.408,0,1,0,2.408,2.408A2.408,2.408,0,0,0,444.347,748.239Z" transform="translate(-389.753 -713.314)" fill="url(#linear-gradient-31)"></path><path id="Path_55" data-name="Path 55" d="M452.822,748.239a2.408,2.408,0,1,0,2.408,2.408A2.409,2.409,0,0,0,452.822,748.239Z" transform="translate(-385.18 -713.314)" fill="url(#linear-gradient-32)"></path><path id="Path_56" data-name="Path 56" d="M461.3,748.239a2.408,2.408,0,1,0,2.407,2.408A2.407,2.407,0,0,0,461.3,748.239Z" transform="translate(-380.606 -713.314)" fill="url(#linear-gradient-33)"></path><path id="Path_57" data-name="Path 57" d="M469.767,748.239a2.408,2.408,0,1,0,2.41,2.408A2.408,2.408,0,0,0,469.767,748.239Z" transform="translate(-376.033 -713.314)" fill="url(#linear-gradient)"></path><path id="Path_58" data-name="Path 58" d="M478.242,748.239a2.408,2.408,0,1,0,2.408,2.408A2.409,2.409,0,0,0,478.242,748.239Z" transform="translate(-371.461 -713.314)" fill="url(#linear-gradient-3)"></path><path id="Path_59" data-name="Path 59" d="M486.716,748.239a2.408,2.408,0,1,0,2.408,2.408A2.409,2.409,0,0,0,486.716,748.239Z" transform="translate(-366.887 -713.314)" fill="url(#linear-gradient)"></path><path id="Path_60" data-name="Path 60" d="M495.187,748.239a2.408,2.408,0,1,0,2.41,2.408A2.408,2.408,0,0,0,495.187,748.239Z" transform="translate(-362.314 -713.314)" fill="url(#linear-gradient-33)"></path><path id="Path_61" data-name="Path 61" d="M503.662,748.239a2.408,2.408,0,1,0,2.41,2.408A2.409,2.409,0,0,0,503.662,748.239Z" transform="translate(-357.741 -713.314)" fill="url(#linear-gradient)"></path><path id="Path_62" data-name="Path 62" d="M512.135,748.239a2.408,2.408,0,1,0,2.407,2.408A2.408,2.408,0,0,0,512.135,748.239Z" transform="translate(-353.167 -713.314)" fill="url(#linear-gradient-7)"></path><path id="Path_63" data-name="Path 63" d="M520.608,748.239a2.408,2.408,0,1,0,2.41,2.408A2.411,2.411,0,0,0,520.608,748.239Z" transform="translate(-348.595 -713.314)" fill="url(#linear-gradient)"></path><path id="Path_64" data-name="Path 64" d="M529.081,748.239a2.408,2.408,0,1,0,2.41,2.408A2.408,2.408,0,0,0,529.081,748.239Z" transform="translate(-344.021 -713.314)" fill="url(#linear-gradient-28)"></path><path id="Path_65" data-name="Path 65" d="M537.557,752.769a2.4,2.4,0,0,0,1.38-.436q-1.559-1.815-3.186-3.565a2.406,2.406,0,0,0,1.806,4Z" transform="translate(-339.447 -713.028)" fill="url(#linear-gradient-32)"></path><path id="Path_66" data-name="Path 66" d="M427.4,755.8a2.408,2.408,0,1,0,2.41,2.41A2.409,2.409,0,0,0,427.4,755.8Z" transform="translate(-398.899 -709.233)" fill="url(#linear-gradient)"></path><path id="Path_67" data-name="Path 67" d="M435.876,755.8a2.408,2.408,0,1,0,2.41,2.41A2.41,2.41,0,0,0,435.876,755.8Z" transform="translate(-394.326 -709.233)" fill="url(#linear-gradient)"></path><path id="Path_68" data-name="Path 68" d="M444.347,755.8a2.408,2.408,0,1,0,2.408,2.41A2.408,2.408,0,0,0,444.347,755.8Z" transform="translate(-389.753 -709.233)" fill="url(#linear-gradient-31)"></path><path id="Path_69" data-name="Path 69" d="M452.822,755.8a2.408,2.408,0,1,0,2.408,2.41A2.408,2.408,0,0,0,452.822,755.8Z" transform="translate(-385.18 -709.233)" fill="url(#linear-gradient-32)"></path><path id="Path_70" data-name="Path 70" d="M461.3,755.8a2.408,2.408,0,1,0,2.407,2.41A2.406,2.406,0,0,0,461.3,755.8Z" transform="translate(-380.606 -709.233)" fill="url(#linear-gradient-33)"></path><path id="Path_71" data-name="Path 71" d="M469.767,755.8a2.408,2.408,0,1,0,2.41,2.41A2.408,2.408,0,0,0,469.767,755.8Z" transform="translate(-376.033 -709.233)" fill="url(#linear-gradient)"></path><path id="Path_72" data-name="Path 72" d="M478.242,755.8a2.408,2.408,0,1,0,2.408,2.41A2.408,2.408,0,0,0,478.242,755.8Z" transform="translate(-371.461 -709.233)" fill="url(#linear-gradient-3)"></path><path id="Path_73" data-name="Path 73" d="M486.716,755.8a2.408,2.408,0,1,0,2.408,2.41A2.408,2.408,0,0,0,486.716,755.8Z" transform="translate(-366.887 -709.233)" fill="url(#linear-gradient)"></path><path id="Path_74" data-name="Path 74" d="M495.187,755.8a2.408,2.408,0,1,0,2.41,2.41A2.408,2.408,0,0,0,495.187,755.8Z" transform="translate(-362.314 -709.233)" fill="url(#linear-gradient-33)"></path><path id="Path_75" data-name="Path 75" d="M503.662,755.8a2.408,2.408,0,1,0,2.41,2.41A2.408,2.408,0,0,0,503.662,755.8Z" transform="translate(-357.741 -709.233)" fill="url(#linear-gradient)"></path><path id="Path_76" data-name="Path 76" d="M512.135,755.8a2.408,2.408,0,1,0,2.407,2.41A2.407,2.407,0,0,0,512.135,755.8Z" transform="translate(-353.167 -709.233)" fill="url(#linear-gradient-7)"></path><path id="Path_77" data-name="Path 77" d="M520.608,755.8a2.408,2.408,0,1,0,2.41,2.41A2.41,2.41,0,0,0,520.608,755.8Z" transform="translate(-348.595 -709.233)" fill="url(#linear-gradient)"></path><path id="Path_78" data-name="Path 78" d="M529.081,755.8a2.408,2.408,0,1,0,2.41,2.41A2.407,2.407,0,0,0,529.081,755.8Z" transform="translate(-344.021 -709.233)" fill="url(#linear-gradient-28)"></path><path id="Path_79" data-name="Path 79" d="M537.557,755.8a2.408,2.408,0,1,0,2.405,2.41A2.408,2.408,0,0,0,537.557,755.8Z" transform="translate(-339.447 -709.233)" fill="url(#linear-gradient-56)"></path><path id="Path_80" data-name="Path 80" d="M418.928,763.361a2.408,2.408,0,1,0,2.413,2.408A2.409,2.409,0,0,0,418.928,763.361Z" transform="translate(-403.473 -705.152)" fill="url(#linear-gradient-57)"></path><path id="Path_81" data-name="Path 81" d="M427.4,763.361a2.408,2.408,0,1,0,2.41,2.408A2.408,2.408,0,0,0,427.4,763.361Z" transform="translate(-398.899 -705.152)" fill="url(#linear-gradient)"></path><path id="Path_82" data-name="Path 82" d="M435.876,763.361a2.408,2.408,0,1,0,2.41,2.408A2.409,2.409,0,0,0,435.876,763.361Z" transform="translate(-394.326 -705.152)" fill="url(#linear-gradient)"></path><path id="Path_83" data-name="Path 83" d="M444.347,763.361a2.408,2.408,0,1,0,2.408,2.408A2.406,2.406,0,0,0,444.347,763.361Z" transform="translate(-389.753 -705.152)" fill="url(#linear-gradient-31)"></path><path id="Path_84" data-name="Path 84" d="M452.822,763.361a2.408,2.408,0,1,0,2.408,2.408A2.407,2.407,0,0,0,452.822,763.361Z" transform="translate(-385.18 -705.152)" fill="url(#linear-gradient-32)"></path><path id="Path_85" data-name="Path 85" d="M461.3,763.361a2.408,2.408,0,1,0,2.407,2.408A2.4,2.4,0,0,0,461.3,763.361Z" transform="translate(-380.606 -705.152)" fill="url(#linear-gradient-33)"></path><path id="Path_86" data-name="Path 86" d="M469.767,763.361a2.408,2.408,0,1,0,2.41,2.408A2.406,2.406,0,0,0,469.767,763.361Z" transform="translate(-376.033 -705.152)" fill="url(#linear-gradient)"></path><path id="Path_87" data-name="Path 87" d="M478.242,763.361a2.408,2.408,0,1,0,2.408,2.408A2.407,2.407,0,0,0,478.242,763.361Z" transform="translate(-371.461 -705.152)" fill="url(#linear-gradient-3)"></path><path id="Path_88" data-name="Path 88" d="M486.716,763.361a2.408,2.408,0,1,0,2.408,2.408A2.407,2.407,0,0,0,486.716,763.361Z" transform="translate(-366.887 -705.152)" fill="url(#linear-gradient)"></path><path id="Path_89" data-name="Path 89" d="M495.187,763.361a2.408,2.408,0,1,0,2.41,2.408A2.406,2.406,0,0,0,495.187,763.361Z" transform="translate(-362.314 -705.152)" fill="url(#linear-gradient-33)"></path><path id="Path_90" data-name="Path 90" d="M503.662,763.361a2.408,2.408,0,1,0,2.41,2.408A2.407,2.407,0,0,0,503.662,763.361Z" transform="translate(-357.741 -705.152)" fill="url(#linear-gradient)"></path><path id="Path_91" data-name="Path 91" d="M512.135,763.361a2.408,2.408,0,1,0,2.407,2.408A2.406,2.406,0,0,0,512.135,763.361Z" transform="translate(-353.167 -705.152)" fill="url(#linear-gradient-7)"></path><path id="Path_92" data-name="Path 92" d="M520.608,763.361a2.408,2.408,0,1,0,2.41,2.408A2.409,2.409,0,0,0,520.608,763.361Z" transform="translate(-348.595 -705.152)" fill="url(#linear-gradient)"></path><path id="Path_93" data-name="Path 93" d="M529.081,763.361a2.408,2.408,0,1,0,2.41,2.408A2.406,2.406,0,0,0,529.081,763.361Z" transform="translate(-344.021 -705.152)" fill="url(#linear-gradient-28)"></path><path id="Path_94" data-name="Path 94" d="M537.557,763.361a2.408,2.408,0,1,0,2.405,2.408A2.407,2.407,0,0,0,537.557,763.361Z" transform="translate(-339.447 -705.152)" fill="url(#linear-gradient-56)"></path><path id="Path_95" data-name="Path 95" d="M546.03,763.361a2.408,2.408,0,1,0,2.407,2.408A2.408,2.408,0,0,0,546.03,763.361Z" transform="translate(-334.875 -705.152)" fill="url(#linear-gradient-57)"></path><path id="Path_96" data-name="Path 96" d="M418.928,770.921a2.409,2.409,0,1,0,2.413,2.408A2.411,2.411,0,0,0,418.928,770.921Z" transform="translate(-403.473 -701.072)" fill="url(#linear-gradient-73)"></path><path id="Path_97" data-name="Path 97" d="M427.4,770.921a2.409,2.409,0,1,0,2.41,2.408A2.41,2.41,0,0,0,427.4,770.921Z" transform="translate(-398.899 -701.072)" fill="url(#linear-gradient-10)"></path><path id="Path_98" data-name="Path 98" d="M435.876,770.921a2.409,2.409,0,1,0,2.41,2.408A2.411,2.411,0,0,0,435.876,770.921Z" transform="translate(-394.326 -701.072)" fill="url(#linear-gradient-10)"></path><path id="Path_99" data-name="Path 99" d="M444.347,770.921a2.409,2.409,0,1,0,2.408,2.408A2.408,2.408,0,0,0,444.347,770.921Z" transform="translate(-389.753 -701.072)" fill="url(#linear-gradient-76)"></path><path id="Path_100" data-name="Path 100" d="M452.822,770.921a2.409,2.409,0,1,0,2.408,2.408A2.409,2.409,0,0,0,452.822,770.921Z" transform="translate(-385.18 -701.072)" fill="url(#linear-gradient-8)"></path><path id="Path_101" data-name="Path 101" d="M461.3,770.921a2.409,2.409,0,1,0,2.407,2.408A2.407,2.407,0,0,0,461.3,770.921Z" transform="translate(-380.606 -701.072)" fill="url(#linear-gradient-5)"></path><path id="Path_102" data-name="Path 102" d="M469.767,770.921a2.409,2.409,0,1,0,2.41,2.408A2.408,2.408,0,0,0,469.767,770.921Z" transform="translate(-376.033 -701.072)" fill="url(#linear-gradient-10)"></path><path id="Path_103" data-name="Path 103" d="M478.242,770.921a2.409,2.409,0,1,0,2.408,2.408A2.409,2.409,0,0,0,478.242,770.921Z" transform="translate(-371.461 -701.072)" fill="url(#linear-gradient-11)"></path><path id="Path_104" data-name="Path 104" d="M486.716,770.921a2.409,2.409,0,1,0,2.408,2.408A2.409,2.409,0,0,0,486.716,770.921Z" transform="translate(-366.887 -701.072)" fill="url(#linear-gradient-10)"></path><path id="Path_105" data-name="Path 105" d="M495.187,770.921a2.409,2.409,0,1,0,2.41,2.408A2.408,2.408,0,0,0,495.187,770.921Z" transform="translate(-362.314 -701.072)" fill="url(#linear-gradient-5)"></path><path id="Path_106" data-name="Path 106" d="M503.662,770.921a2.409,2.409,0,1,0,2.41,2.408A2.409,2.409,0,0,0,503.662,770.921Z" transform="translate(-357.741 -701.072)" fill="url(#linear-gradient-10)"></path><path id="Path_107" data-name="Path 107" d="M512.135,770.921a2.409,2.409,0,1,0,2.407,2.408A2.408,2.408,0,0,0,512.135,770.921Z" transform="translate(-353.167 -701.072)" fill="url(#linear-gradient-15)"></path><path id="Path_108" data-name="Path 108" d="M520.608,770.921a2.409,2.409,0,1,0,2.41,2.408A2.411,2.411,0,0,0,520.608,770.921Z" transform="translate(-348.595 -701.072)" fill="url(#linear-gradient-10)"></path><path id="Path_109" data-name="Path 109" d="M529.081,770.921a2.409,2.409,0,1,0,2.41,2.408A2.408,2.408,0,0,0,529.081,770.921Z" transform="translate(-344.021 -701.072)" fill="url(#linear-gradient-86)"></path><path id="Path_110" data-name="Path 110" d="M537.557,770.921a2.409,2.409,0,1,0,2.405,2.408A2.409,2.409,0,0,0,537.557,770.921Z" transform="translate(-339.447 -701.072)" fill="url(#linear-gradient-87)"></path><path id="Path_111" data-name="Path 111" d="M546.03,770.921a2.409,2.409,0,1,0,2.407,2.408A2.41,2.41,0,0,0,546.03,770.921Z" transform="translate(-334.875 -701.072)" fill="url(#linear-gradient-73)"></path><path id="Path_112" data-name="Path 112" d="M410.99,778.834q-.6,2.1-1.118,4.239a2.4,2.4,0,0,0,1.118-4.239Z" transform="translate(-407.06 -696.801)" fill="url(#linear-gradient-89)"></path><path id="Path_113" data-name="Path 113" d="M418.928,778.482a2.408,2.408,0,1,0,2.413,2.408A2.411,2.411,0,0,0,418.928,778.482Z" transform="translate(-403.473 -696.991)" fill="url(#linear-gradient-73)"></path><path id="Path_114" data-name="Path 114" d="M427.4,778.482a2.408,2.408,0,1,0,2.41,2.408A2.41,2.41,0,0,0,427.4,778.482Z" transform="translate(-398.899 -696.991)" fill="url(#linear-gradient-10)"></path><path id="Path_115" data-name="Path 115" d="M435.876,778.482a2.408,2.408,0,1,0,2.41,2.408A2.411,2.411,0,0,0,435.876,778.482Z" transform="translate(-394.326 -696.991)" fill="url(#linear-gradient-10)"></path><path id="Path_116" data-name="Path 116" d="M444.347,778.482a2.408,2.408,0,1,0,2.408,2.408A2.408,2.408,0,0,0,444.347,778.482Z" transform="translate(-389.753 -696.991)" fill="url(#linear-gradient-76)"></path><path id="Path_117" data-name="Path 117" d="M452.822,778.482a2.408,2.408,0,1,0,2.408,2.408A2.409,2.409,0,0,0,452.822,778.482Z" transform="translate(-385.18 -696.991)" fill="url(#linear-gradient-8)"></path><path id="Path_118" data-name="Path 118" d="M461.3,778.482a2.408,2.408,0,1,0,2.407,2.408A2.407,2.407,0,0,0,461.3,778.482Z" transform="translate(-380.606 -696.991)" fill="url(#linear-gradient-5)"></path><path id="Path_119" data-name="Path 119" d="M469.767,778.482a2.408,2.408,0,1,0,2.41,2.408A2.408,2.408,0,0,0,469.767,778.482Z" transform="translate(-376.033 -696.991)" fill="url(#linear-gradient-10)"></path><path id="Path_120" data-name="Path 120" d="M478.242,778.482a2.408,2.408,0,1,0,2.408,2.408A2.409,2.409,0,0,0,478.242,778.482Z" transform="translate(-371.461 -696.991)" fill="url(#linear-gradient-11)"></path><path id="Path_121" data-name="Path 121" d="M486.716,778.482a2.408,2.408,0,1,0,2.408,2.408A2.409,2.409,0,0,0,486.716,778.482Z" transform="translate(-366.887 -696.991)" fill="url(#linear-gradient-10)"></path><path id="Path_122" data-name="Path 122" d="M495.187,778.482a2.408,2.408,0,1,0,2.41,2.408A2.408,2.408,0,0,0,495.187,778.482Z" transform="translate(-362.314 -696.991)" fill="url(#linear-gradient-5)"></path><path id="Path_123" data-name="Path 123" d="M503.662,778.482a2.408,2.408,0,1,0,2.41,2.408A2.409,2.409,0,0,0,503.662,778.482Z" transform="translate(-357.741 -696.991)" fill="url(#linear-gradient-10)"></path><path id="Path_124" data-name="Path 124" d="M512.135,778.482a2.408,2.408,0,1,0,2.407,2.408A2.408,2.408,0,0,0,512.135,778.482Z" transform="translate(-353.167 -696.991)" fill="url(#linear-gradient-15)"></path><path id="Path_125" data-name="Path 125" d="M520.608,778.482a2.408,2.408,0,1,0,2.41,2.408A2.411,2.411,0,0,0,520.608,778.482Z" transform="translate(-348.595 -696.991)" fill="url(#linear-gradient-10)"></path><path id="Path_126" data-name="Path 126" d="M529.081,778.482a2.408,2.408,0,1,0,2.41,2.408A2.408,2.408,0,0,0,529.081,778.482Z" transform="translate(-344.021 -696.991)" fill="url(#linear-gradient-86)"></path><path id="Path_127" data-name="Path 127" d="M537.557,778.482a2.408,2.408,0,1,0,2.405,2.408A2.409,2.409,0,0,0,537.557,778.482Z" transform="translate(-339.447 -696.991)" fill="url(#linear-gradient-87)"></path><path id="Path_128" data-name="Path 128" d="M546.03,778.482a2.408,2.408,0,1,0,2.407,2.408A2.41,2.41,0,0,0,546.03,778.482Z" transform="translate(-334.875 -696.991)" fill="url(#linear-gradient-73)"></path><path id="Path_129" data-name="Path 129" d="M553.887,782.978q-.5-2.041-1.067-4.051a2.407,2.407,0,0,0,1.067,4.051Z" transform="translate(-330.301 -696.751)" fill="url(#linear-gradient-106)"></path><path id="Path_130" data-name="Path 130" d="M410.207,786.043a2.4,2.4,0,0,0-1.089.262q-.335,1.917-.611,3.854a2.409,2.409,0,1,0,1.7-4.116Z" transform="translate(-407.797 -692.91)" fill="url(#linear-gradient-5)"></path><path id="Path_131" data-name="Path 131" d="M418.928,786.043a2.408,2.408,0,1,0,2.413,2.408A2.41,2.41,0,0,0,418.928,786.043Z" transform="translate(-403.473 -692.91)" fill="url(#linear-gradient-73)"></path><path id="Path_132" data-name="Path 132" d="M427.4,786.043a2.408,2.408,0,1,0,2.41,2.408A2.409,2.409,0,0,0,427.4,786.043Z" transform="translate(-398.899 -692.91)" fill="url(#linear-gradient-10)"></path><path id="Path_133" data-name="Path 133" d="M435.876,786.043a2.408,2.408,0,1,0,2.41,2.408A2.41,2.41,0,0,0,435.876,786.043Z" transform="translate(-394.326 -692.91)" fill="url(#linear-gradient-10)"></path><path id="Path_134" data-name="Path 134" d="M444.347,786.043a2.408,2.408,0,1,0,2.408,2.408A2.407,2.407,0,0,0,444.347,786.043Z" transform="translate(-389.753 -692.91)" fill="url(#linear-gradient-76)"></path><path id="Path_135" data-name="Path 135" d="M452.822,786.043a2.408,2.408,0,1,0,2.408,2.408A2.408,2.408,0,0,0,452.822,786.043Z" transform="translate(-385.18 -692.91)" fill="url(#linear-gradient-8)"></path><path id="Path_136" data-name="Path 136" d="M461.3,786.043a2.408,2.408,0,1,0,2.407,2.408A2.406,2.406,0,0,0,461.3,786.043Z" transform="translate(-380.606 -692.91)" fill="url(#linear-gradient-5)"></path><path id="Path_137" data-name="Path 137" d="M469.767,786.043a2.408,2.408,0,1,0,2.41,2.408A2.407,2.407,0,0,0,469.767,786.043Z" transform="translate(-376.033 -692.91)" fill="url(#linear-gradient-10)"></path><path id="Path_138" data-name="Path 138" d="M478.242,786.043a2.408,2.408,0,1,0,2.408,2.408A2.408,2.408,0,0,0,478.242,786.043Z" transform="translate(-371.461 -692.91)" fill="url(#linear-gradient-11)"></path><path id="Path_139" data-name="Path 139" d="M486.716,786.043a2.408,2.408,0,1,0,2.408,2.408A2.408,2.408,0,0,0,486.716,786.043Z" transform="translate(-366.887 -692.91)" fill="url(#linear-gradient-10)"></path><path id="Path_140" data-name="Path 140" d="M495.187,786.043a2.408,2.408,0,1,0,2.41,2.408A2.407,2.407,0,0,0,495.187,786.043Z" transform="translate(-362.314 -692.91)" fill="url(#linear-gradient-5)"></path><path id="Path_141" data-name="Path 141" d="M503.662,786.043a2.408,2.408,0,1,0,2.41,2.408A2.408,2.408,0,0,0,503.662,786.043Z" transform="translate(-357.741 -692.91)" fill="url(#linear-gradient-10)"></path><path id="Path_142" data-name="Path 142" d="M512.135,786.043a2.408,2.408,0,1,0,2.407,2.408A2.407,2.407,0,0,0,512.135,786.043Z" transform="translate(-353.167 -692.91)" fill="url(#linear-gradient-15)"></path><path id="Path_143" data-name="Path 143" d="M520.608,786.043a2.408,2.408,0,1,0,2.41,2.408A2.41,2.41,0,0,0,520.608,786.043Z" transform="translate(-348.595 -692.91)" fill="url(#linear-gradient-10)"></path><path id="Path_144" data-name="Path 144" d="M529.081,786.043a2.408,2.408,0,1,0,2.41,2.408A2.407,2.407,0,0,0,529.081,786.043Z" transform="translate(-344.021 -692.91)" fill="url(#linear-gradient-86)"></path><path id="Path_145" data-name="Path 145" d="M537.557,786.043a2.408,2.408,0,1,0,2.405,2.408A2.408,2.408,0,0,0,537.557,786.043Z" transform="translate(-339.447 -692.91)" fill="url(#linear-gradient-87)"></path><path id="Path_146" data-name="Path 146" d="M546.03,786.043a2.408,2.408,0,1,0,2.407,2.408A2.409,2.409,0,0,0,546.03,786.043Z" transform="translate(-334.875 -692.91)" fill="url(#linear-gradient-73)"></path><path id="Path_147" data-name="Path 147" d="M554.5,790.859a2.4,2.4,0,0,0,1.518-.54q-.286-2.069-.648-4.111a2.408,2.408,0,1,0-.87,4.651Z" transform="translate(-330.301 -692.91)" fill="url(#linear-gradient-15)"></path><path id="Path_148" data-name="Path 148" d="M410.456,793.6a2.408,2.408,0,1,0,2.41,2.407A2.41,2.41,0,0,0,410.456,793.6Z" transform="translate(-408.046 -688.829)" fill="url(#linear-gradient-125)"></path><path id="Path_149" data-name="Path 149" d="M418.928,793.6a2.408,2.408,0,1,0,2.413,2.407A2.41,2.41,0,0,0,418.928,793.6Z" transform="translate(-403.473 -688.829)" fill="url(#linear-gradient-57)"></path><path id="Path_150" data-name="Path 150" d="M427.4,793.6a2.408,2.408,0,1,0,2.41,2.407A2.408,2.408,0,0,0,427.4,793.6Z" transform="translate(-398.899 -688.829)" fill="url(#linear-gradient)"></path><path id="Path_151" data-name="Path 151" d="M435.876,793.6a2.408,2.408,0,1,0,2.41,2.407A2.41,2.41,0,0,0,435.876,793.6Z" transform="translate(-394.326 -688.829)" fill="url(#linear-gradient)"></path><path id="Path_152" data-name="Path 152" d="M444.347,793.6a2.408,2.408,0,1,0,2.408,2.407A2.407,2.407,0,0,0,444.347,793.6Z" transform="translate(-389.753 -688.829)" fill="url(#linear-gradient-31)"></path><path id="Path_153" data-name="Path 153" d="M452.822,793.6a2.408,2.408,0,1,0,2.408,2.407A2.408,2.408,0,0,0,452.822,793.6Z" transform="translate(-385.18 -688.829)" fill="url(#linear-gradient-32)"></path><path id="Path_154" data-name="Path 154" d="M461.3,793.6a2.408,2.408,0,1,0,2.407,2.407A2.405,2.405,0,0,0,461.3,793.6Z" transform="translate(-380.606 -688.829)" fill="url(#linear-gradient-33)"></path><path id="Path_155" data-name="Path 155" d="M469.767,793.6a2.408,2.408,0,1,0,2.41,2.407A2.407,2.407,0,0,0,469.767,793.6Z" transform="translate(-376.033 -688.829)" fill="url(#linear-gradient)"></path><path id="Path_156" data-name="Path 156" d="M478.242,793.6a2.408,2.408,0,1,0,2.408,2.407A2.408,2.408,0,0,0,478.242,793.6Z" transform="translate(-371.461 -688.829)" fill="url(#linear-gradient-3)"></path><path id="Path_157" data-name="Path 157" d="M486.716,793.6a2.408,2.408,0,1,0,2.408,2.407A2.408,2.408,0,0,0,486.716,793.6Z" transform="translate(-366.887 -688.829)" fill="url(#linear-gradient)"></path><path id="Path_158" data-name="Path 158" d="M495.187,793.6a2.408,2.408,0,1,0,2.41,2.407A2.407,2.407,0,0,0,495.187,793.6Z" transform="translate(-362.314 -688.829)" fill="url(#linear-gradient-33)"></path><path id="Path_159" data-name="Path 159" d="M503.662,793.6a2.408,2.408,0,1,0,2.41,2.407A2.408,2.408,0,0,0,503.662,793.6Z" transform="translate(-357.741 -688.829)" fill="url(#linear-gradient)"></path><path id="Path_160" data-name="Path 160" d="M512.135,793.6a2.408,2.408,0,1,0,2.407,2.407A2.406,2.406,0,0,0,512.135,793.6Z" transform="translate(-353.167 -688.829)" fill="url(#linear-gradient-7)"></path><path id="Path_161" data-name="Path 161" d="M520.608,793.6a2.408,2.408,0,1,0,2.41,2.407A2.41,2.41,0,0,0,520.608,793.6Z" transform="translate(-348.595 -688.829)" fill="url(#linear-gradient)"></path><path id="Path_162" data-name="Path 162" d="M529.081,793.6a2.408,2.408,0,1,0,2.41,2.407A2.406,2.406,0,0,0,529.081,793.6Z" transform="translate(-344.021 -688.829)" fill="url(#linear-gradient-28)"></path><path id="Path_163" data-name="Path 163" d="M537.557,793.6a2.408,2.408,0,1,0,2.405,2.407A2.408,2.408,0,0,0,537.557,793.6Z" transform="translate(-339.447 -688.829)" fill="url(#linear-gradient-56)"></path><path id="Path_164" data-name="Path 164" d="M546.03,793.6a2.408,2.408,0,1,0,2.407,2.407A2.409,2.409,0,0,0,546.03,793.6Z" transform="translate(-334.875 -688.829)" fill="url(#linear-gradient-57)"></path><path id="Path_165" data-name="Path 165" d="M554.5,798.42a2.408,2.408,0,1,0-2.41-2.41A2.409,2.409,0,0,0,554.5,798.42Z" transform="translate(-330.301 -688.829)" fill="url(#linear-gradient-33)"></path><path id="Path_166" data-name="Path 166" d="M410.456,801.165a2.408,2.408,0,1,0,2.41,2.41A2.41,2.41,0,0,0,410.456,801.165Z" transform="translate(-408.046 -684.749)" fill="url(#linear-gradient-143)"></path><path id="Path_167" data-name="Path 167" d="M418.928,801.165a2.408,2.408,0,1,0,2.413,2.41A2.41,2.41,0,0,0,418.928,801.165Z" transform="translate(-403.473 -684.749)" fill="url(#linear-gradient-73)"></path><path id="Path_168" data-name="Path 168" d="M427.4,801.165a2.408,2.408,0,1,0,2.41,2.41A2.409,2.409,0,0,0,427.4,801.165Z" transform="translate(-398.899 -684.749)" fill="url(#linear-gradient-10)"></path><path id="Path_169" data-name="Path 169" d="M435.876,801.165a2.408,2.408,0,1,0,2.41,2.41A2.41,2.41,0,0,0,435.876,801.165Z" transform="translate(-394.326 -684.749)" fill="url(#linear-gradient-10)"></path><path id="Path_170" data-name="Path 170" d="M444.347,801.165a2.408,2.408,0,1,0,2.408,2.41A2.408,2.408,0,0,0,444.347,801.165Z" transform="translate(-389.753 -684.749)" fill="url(#linear-gradient-76)"></path><path id="Path_171" data-name="Path 171" d="M452.822,801.165a2.408,2.408,0,1,0,2.408,2.41A2.408,2.408,0,0,0,452.822,801.165Z" transform="translate(-385.18 -684.749)" fill="url(#linear-gradient-8)"></path><path id="Path_172" data-name="Path 172" d="M461.3,801.165a2.408,2.408,0,1,0,2.407,2.41A2.406,2.406,0,0,0,461.3,801.165Z" transform="translate(-380.606 -684.749)" fill="url(#linear-gradient-5)"></path><path id="Path_173" data-name="Path 173" d="M469.767,801.165a2.408,2.408,0,1,0,2.41,2.41A2.408,2.408,0,0,0,469.767,801.165Z" transform="translate(-376.033 -684.749)" fill="url(#linear-gradient-10)"></path><path id="Path_174" data-name="Path 174" d="M478.242,801.165a2.408,2.408,0,1,0,2.408,2.41A2.408,2.408,0,0,0,478.242,801.165Z" transform="translate(-371.461 -684.749)" fill="url(#linear-gradient-11)"></path><path id="Path_175" data-name="Path 175" d="M486.716,801.165a2.408,2.408,0,1,0,2.408,2.41A2.408,2.408,0,0,0,486.716,801.165Z" transform="translate(-366.887 -684.749)" fill="url(#linear-gradient-10)"></path><path id="Path_176" data-name="Path 176" d="M495.187,801.165a2.408,2.408,0,1,0,2.41,2.41A2.408,2.408,0,0,0,495.187,801.165Z" transform="translate(-362.314 -684.749)" fill="url(#linear-gradient-5)"></path><path id="Path_177" data-name="Path 177" d="M503.662,801.165a2.408,2.408,0,1,0,2.41,2.41A2.408,2.408,0,0,0,503.662,801.165Z" transform="translate(-357.741 -684.749)" fill="url(#linear-gradient-10)"></path><path id="Path_178" data-name="Path 178" d="M512.135,801.165a2.408,2.408,0,1,0,2.407,2.41A2.407,2.407,0,0,0,512.135,801.165Z" transform="translate(-353.167 -684.749)" fill="url(#linear-gradient-15)"></path><path id="Path_179" data-name="Path 179" d="M520.608,801.165a2.408,2.408,0,1,0,2.41,2.41A2.41,2.41,0,0,0,520.608,801.165Z" transform="translate(-348.595 -684.749)" fill="url(#linear-gradient-10)"></path><path id="Path_180" data-name="Path 180" d="M529.081,801.165a2.408,2.408,0,1,0,2.41,2.41A2.407,2.407,0,0,0,529.081,801.165Z" transform="translate(-344.021 -684.749)" fill="url(#linear-gradient-86)"></path><path id="Path_181" data-name="Path 181" d="M537.557,801.165a2.408,2.408,0,1,0,2.405,2.41A2.408,2.408,0,0,0,537.557,801.165Z" transform="translate(-339.447 -684.749)" fill="url(#linear-gradient-87)"></path><path id="Path_182" data-name="Path 182" d="M546.03,801.165a2.408,2.408,0,1,0,2.407,2.41A2.41,2.41,0,0,0,546.03,801.165Z" transform="translate(-334.875 -684.749)" fill="url(#linear-gradient-73)"></path><path id="Path_183" data-name="Path 183" d="M554.5,801.165a2.408,2.408,0,1,0,2.406,2.41A2.407,2.407,0,0,0,554.5,801.165Z" transform="translate(-330.301 -684.749)" fill="url(#linear-gradient-5)"></path><path id="Path_184" data-name="Path 184" d="M410.223,808.726a2.4,2.4,0,0,0-1.746.75q.261,1.9.582,3.766a2.408,2.408,0,1,0,1.164-4.516Z" transform="translate(-407.813 -680.668)" fill="url(#linear-gradient-2)"></path><path id="Path_185" data-name="Path 185" d="M418.928,808.726a2.408,2.408,0,1,0,2.413,2.408A2.41,2.41,0,0,0,418.928,808.726Z" transform="translate(-403.473 -680.668)" fill="url(#linear-gradient-162)"></path><path id="Path_186" data-name="Path 186" d="M427.4,808.726a2.408,2.408,0,1,0,2.41,2.408A2.409,2.409,0,0,0,427.4,808.726Z" transform="translate(-398.899 -680.668)" fill="url(#linear-gradient-17)"></path><path id="Path_187" data-name="Path 187" d="M435.876,808.726a2.408,2.408,0,1,0,2.41,2.408A2.41,2.41,0,0,0,435.876,808.726Z" transform="translate(-394.326 -680.668)" fill="url(#linear-gradient-17)"></path><path id="Path_188" data-name="Path 188" d="M444.347,808.726a2.408,2.408,0,1,0,2.408,2.408A2.407,2.407,0,0,0,444.347,808.726Z" transform="translate(-389.753 -680.668)" fill="url(#linear-gradient-18)"></path><path id="Path_189" data-name="Path 189" d="M452.822,808.726a2.408,2.408,0,1,0,2.408,2.408A2.408,2.408,0,0,0,452.822,808.726Z" transform="translate(-385.18 -680.668)" fill="url(#linear-gradient-19)"></path><path id="Path_190" data-name="Path 190" d="M461.3,808.726a2.408,2.408,0,1,0,2.407,2.408A2.406,2.406,0,0,0,461.3,808.726Z" transform="translate(-380.606 -680.668)" fill="url(#linear-gradient-20)"></path><path id="Path_191" data-name="Path 191" d="M469.767,808.726a2.408,2.408,0,1,0,2.41,2.408A2.407,2.407,0,0,0,469.767,808.726Z" transform="translate(-376.033 -680.668)" fill="url(#linear-gradient-17)"></path><path id="Path_192" data-name="Path 192" d="M478.242,808.726a2.408,2.408,0,1,0,2.408,2.408A2.408,2.408,0,0,0,478.242,808.726Z" transform="translate(-371.461 -680.668)" fill="url(#linear-gradient-22)"></path><path id="Path_193" data-name="Path 193" d="M486.716,808.726a2.408,2.408,0,1,0,2.408,2.408A2.408,2.408,0,0,0,486.716,808.726Z" transform="translate(-366.887 -680.668)" fill="url(#linear-gradient-17)"></path><path id="Path_194" data-name="Path 194" d="M495.187,808.726a2.408,2.408,0,1,0,2.41,2.408A2.407,2.407,0,0,0,495.187,808.726Z" transform="translate(-362.314 -680.668)" fill="url(#linear-gradient-20)"></path><path id="Path_195" data-name="Path 195" d="M503.662,808.726a2.408,2.408,0,1,0,2.41,2.408A2.408,2.408,0,0,0,503.662,808.726Z" transform="translate(-357.741 -680.668)" fill="url(#linear-gradient-17)"></path><path id="Path_196" data-name="Path 196" d="M512.135,808.726a2.408,2.408,0,1,0,2.407,2.408A2.407,2.407,0,0,0,512.135,808.726Z" transform="translate(-353.167 -680.668)" fill="url(#linear-gradient-26)"></path><path id="Path_197" data-name="Path 197" d="M520.608,808.726a2.408,2.408,0,1,0,2.41,2.408A2.41,2.41,0,0,0,520.608,808.726Z" transform="translate(-348.595 -680.668)" fill="url(#linear-gradient-17)"></path><path id="Path_198" data-name="Path 198" d="M529.081,808.726a2.408,2.408,0,1,0,2.41,2.408A2.407,2.407,0,0,0,529.081,808.726Z" transform="translate(-344.021 -680.668)" fill="url(#linear-gradient-175)"></path><path id="Path_199" data-name="Path 199" d="M537.557,808.726a2.408,2.408,0,1,0,2.405,2.408A2.408,2.408,0,0,0,537.557,808.726Z" transform="translate(-339.447 -680.668)" fill="url(#linear-gradient-176)"></path><path id="Path_200" data-name="Path 200" d="M546.03,808.726a2.408,2.408,0,1,0,2.407,2.408A2.409,2.409,0,0,0,546.03,808.726Z" transform="translate(-334.875 -680.668)" fill="url(#linear-gradient-162)"></path><path id="Path_201" data-name="Path 201" d="M552.093,811.134a2.407,2.407,0,0,0,2.41,2.408,2.375,2.375,0,0,0,.941-.192q.349-2.009.627-4.042a2.408,2.408,0,0,0-3.977,1.826Z" transform="translate(-330.301 -680.668)" fill="url(#linear-gradient-178)"></path><path id="Path_202" data-name="Path 202" d="M409.807,816.3q.52,2.178,1.124,4.323a2.4,2.4,0,0,0-1.124-4.323Z" transform="translate(-407.096 -676.58)" fill="url(#linear-gradient)"></path><path id="Path_203" data-name="Path 203" d="M418.928,816.286a2.409,2.409,0,1,0,2.413,2.41A2.411,2.411,0,0,0,418.928,816.286Z" transform="translate(-403.473 -676.588)" fill="url(#linear-gradient-57)"></path><path id="Path_204" data-name="Path 204" d="M427.4,816.286a2.409,2.409,0,1,0,2.41,2.41A2.41,2.41,0,0,0,427.4,816.286Z" transform="translate(-398.899 -676.588)" fill="url(#linear-gradient)"></path><path id="Path_205" data-name="Path 205" d="M435.876,816.286a2.409,2.409,0,1,0,2.41,2.41A2.411,2.411,0,0,0,435.876,816.286Z" transform="translate(-394.326 -676.588)" fill="url(#linear-gradient)"></path><path id="Path_206" data-name="Path 206" d="M444.347,816.286a2.409,2.409,0,1,0,2.408,2.41A2.409,2.409,0,0,0,444.347,816.286Z" transform="translate(-389.753 -676.588)" fill="url(#linear-gradient-31)"></path><path id="Path_207" data-name="Path 207" d="M452.822,816.286a2.409,2.409,0,1,0,2.408,2.41A2.409,2.409,0,0,0,452.822,816.286Z" transform="translate(-385.18 -676.588)" fill="url(#linear-gradient-32)"></path><path id="Path_208" data-name="Path 208" d="M461.3,816.286a2.409,2.409,0,1,0,2.407,2.41A2.407,2.407,0,0,0,461.3,816.286Z" transform="translate(-380.606 -676.588)" fill="url(#linear-gradient-33)"></path><path id="Path_209" data-name="Path 209" d="M469.767,816.286a2.409,2.409,0,1,0,2.41,2.41A2.409,2.409,0,0,0,469.767,816.286Z" transform="translate(-376.033 -676.588)" fill="url(#linear-gradient)"></path><path id="Path_210" data-name="Path 210" d="M478.242,816.286a2.409,2.409,0,1,0,2.408,2.41A2.409,2.409,0,0,0,478.242,816.286Z" transform="translate(-371.461 -676.588)" fill="url(#linear-gradient-3)"></path><path id="Path_211" data-name="Path 211" d="M486.716,816.286a2.409,2.409,0,1,0,2.408,2.41A2.409,2.409,0,0,0,486.716,816.286Z" transform="translate(-366.887 -676.588)" fill="url(#linear-gradient)"></path><path id="Path_212" data-name="Path 212" d="M495.187,816.286a2.409,2.409,0,1,0,2.41,2.41A2.409,2.409,0,0,0,495.187,816.286Z" transform="translate(-362.314 -676.588)" fill="url(#linear-gradient-33)"></path><path id="Path_213" data-name="Path 213" d="M503.662,816.286a2.409,2.409,0,1,0,2.41,2.41A2.409,2.409,0,0,0,503.662,816.286Z" transform="translate(-357.741 -676.588)" fill="url(#linear-gradient)"></path><path id="Path_214" data-name="Path 214" d="M512.135,816.286a2.409,2.409,0,1,0,2.407,2.41A2.408,2.408,0,0,0,512.135,816.286Z" transform="translate(-353.167 -676.588)" fill="url(#linear-gradient-7)"></path><path id="Path_215" data-name="Path 215" d="M520.608,816.286a2.409,2.409,0,1,0,2.41,2.41A2.411,2.411,0,0,0,520.608,816.286Z" transform="translate(-348.595 -676.588)" fill="url(#linear-gradient)"></path><path id="Path_216" data-name="Path 216" d="M529.081,816.286a2.409,2.409,0,1,0,2.41,2.41A2.408,2.408,0,0,0,529.081,816.286Z" transform="translate(-344.021 -676.588)" fill="url(#linear-gradient-28)"></path><path id="Path_217" data-name="Path 217" d="M537.557,816.286a2.409,2.409,0,1,0,2.405,2.41A2.409,2.409,0,0,0,537.557,816.286Z" transform="translate(-339.447 -676.588)" fill="url(#linear-gradient-56)"></path><path id="Path_218" data-name="Path 218" d="M546.03,816.286a2.409,2.409,0,1,0,2.407,2.41A2.411,2.411,0,0,0,546.03,816.286Z" transform="translate(-334.875 -676.588)" fill="url(#linear-gradient-57)"></path><path id="Path_219" data-name="Path 219" d="M552.093,818.676a2.389,2.389,0,0,0,.818,1.8q.575-2.062,1.081-4.157A2.409,2.409,0,0,0,552.093,818.676Z" transform="translate(-330.301 -676.568)" fill="url(#linear-gradient-196)"></path><path id="Path_220" data-name="Path 220" d="M418.928,823.847a2.409,2.409,0,1,0,2.413,2.408A2.41,2.41,0,0,0,418.928,823.847Z" transform="translate(-403.473 -672.507)" fill="url(#linear-gradient-57)"></path><path id="Path_221" data-name="Path 221" d="M427.4,823.847a2.409,2.409,0,1,0,2.41,2.408A2.409,2.409,0,0,0,427.4,823.847Z" transform="translate(-398.899 -672.507)" fill="url(#linear-gradient)"></path><path id="Path_222" data-name="Path 222" d="M435.876,823.847a2.409,2.409,0,1,0,2.41,2.408A2.41,2.41,0,0,0,435.876,823.847Z" transform="translate(-394.326 -672.507)" fill="url(#linear-gradient)"></path><path id="Path_223" data-name="Path 223" d="M444.347,823.847a2.409,2.409,0,1,0,2.408,2.408A2.407,2.407,0,0,0,444.347,823.847Z" transform="translate(-389.753 -672.507)" fill="url(#linear-gradient-31)"></path><path id="Path_224" data-name="Path 224" d="M452.822,823.847a2.409,2.409,0,1,0,2.408,2.408A2.408,2.408,0,0,0,452.822,823.847Z" transform="translate(-385.18 -672.507)" fill="url(#linear-gradient-32)"></path><path id="Path_225" data-name="Path 225" d="M461.3,823.847a2.409,2.409,0,1,0,2.407,2.408A2.406,2.406,0,0,0,461.3,823.847Z" transform="translate(-380.606 -672.507)" fill="url(#linear-gradient-33)"></path><path id="Path_226" data-name="Path 226" d="M469.767,823.847a2.409,2.409,0,1,0,2.41,2.408A2.407,2.407,0,0,0,469.767,823.847Z" transform="translate(-376.033 -672.507)" fill="url(#linear-gradient)"></path><path id="Path_227" data-name="Path 227" d="M478.242,823.847a2.409,2.409,0,1,0,2.408,2.408A2.408,2.408,0,0,0,478.242,823.847Z" transform="translate(-371.461 -672.507)" fill="url(#linear-gradient-3)"></path><path id="Path_228" data-name="Path 228" d="M486.716,823.847a2.409,2.409,0,1,0,2.408,2.408A2.408,2.408,0,0,0,486.716,823.847Z" transform="translate(-366.887 -672.507)" fill="url(#linear-gradient)"></path><path id="Path_229" data-name="Path 229" d="M495.187,823.847a2.409,2.409,0,1,0,2.41,2.408A2.407,2.407,0,0,0,495.187,823.847Z" transform="translate(-362.314 -672.507)" fill="url(#linear-gradient-33)"></path><path id="Path_230" data-name="Path 230" d="M503.662,823.847a2.409,2.409,0,1,0,2.41,2.408A2.408,2.408,0,0,0,503.662,823.847Z" transform="translate(-357.741 -672.507)" fill="url(#linear-gradient)"></path><path id="Path_231" data-name="Path 231" d="M512.135,823.847a2.409,2.409,0,1,0,2.407,2.408A2.407,2.407,0,0,0,512.135,823.847Z" transform="translate(-353.167 -672.507)" fill="url(#linear-gradient-7)"></path><path id="Path_232" data-name="Path 232" d="M520.608,823.847a2.409,2.409,0,1,0,2.41,2.408A2.41,2.41,0,0,0,520.608,823.847Z" transform="translate(-348.595 -672.507)" fill="url(#linear-gradient)"></path><path id="Path_233" data-name="Path 233" d="M529.081,823.847a2.409,2.409,0,1,0,2.41,2.408A2.407,2.407,0,0,0,529.081,823.847Z" transform="translate(-344.021 -672.507)" fill="url(#linear-gradient-28)"></path><path id="Path_234" data-name="Path 234" d="M537.557,823.847a2.409,2.409,0,1,0,2.405,2.408A2.408,2.408,0,0,0,537.557,823.847Z" transform="translate(-339.447 -672.507)" fill="url(#linear-gradient-56)"></path><path id="Path_235" data-name="Path 235" d="M546.03,823.847a2.409,2.409,0,1,0,2.407,2.408A2.409,2.409,0,0,0,546.03,823.847Z" transform="translate(-334.875 -672.507)" fill="url(#linear-gradient-57)"></path><path id="Path_236" data-name="Path 236" d="M418.928,831.408a2.409,2.409,0,1,0,2.413,2.408A2.409,2.409,0,0,0,418.928,831.408Z" transform="translate(-403.473 -668.426)" fill="url(#linear-gradient-162)"></path><path id="Path_237" data-name="Path 237" d="M427.4,831.408a2.409,2.409,0,1,0,2.41,2.408A2.408,2.408,0,0,0,427.4,831.408Z" transform="translate(-398.899 -668.426)" fill="url(#linear-gradient-17)"></path><path id="Path_238" data-name="Path 238" d="M435.876,831.408a2.409,2.409,0,1,0,2.41,2.408A2.409,2.409,0,0,0,435.876,831.408Z" transform="translate(-394.326 -668.426)" fill="url(#linear-gradient-17)"></path><path id="Path_239" data-name="Path 239" d="M444.347,831.408a2.409,2.409,0,1,0,2.408,2.408A2.406,2.406,0,0,0,444.347,831.408Z" transform="translate(-389.753 -668.426)" fill="url(#linear-gradient-18)"></path><path id="Path_240" data-name="Path 240" d="M452.822,831.408a2.409,2.409,0,1,0,2.408,2.408A2.407,2.407,0,0,0,452.822,831.408Z" transform="translate(-385.18 -668.426)" fill="url(#linear-gradient-19)"></path><path id="Path_241" data-name="Path 241" d="M461.3,831.408a2.409,2.409,0,1,0,2.407,2.408A2.4,2.4,0,0,0,461.3,831.408Z" transform="translate(-380.606 -668.426)" fill="url(#linear-gradient-20)"></path><path id="Path_242" data-name="Path 242" d="M469.767,831.408a2.409,2.409,0,1,0,2.41,2.408A2.406,2.406,0,0,0,469.767,831.408Z" transform="translate(-376.033 -668.426)" fill="url(#linear-gradient-17)"></path><path id="Path_243" data-name="Path 243" d="M478.242,831.408a2.409,2.409,0,1,0,2.408,2.408A2.407,2.407,0,0,0,478.242,831.408Z" transform="translate(-371.461 -668.426)" fill="url(#linear-gradient-22)"></path><path id="Path_244" data-name="Path 244" d="M486.716,831.408a2.409,2.409,0,1,0,2.408,2.408A2.407,2.407,0,0,0,486.716,831.408Z" transform="translate(-366.887 -668.426)" fill="url(#linear-gradient-17)"></path><path id="Path_245" data-name="Path 245" d="M495.187,831.408a2.409,2.409,0,1,0,2.41,2.408A2.406,2.406,0,0,0,495.187,831.408Z" transform="translate(-362.314 -668.426)" fill="url(#linear-gradient-20)"></path><path id="Path_246" data-name="Path 246" d="M503.662,831.408a2.409,2.409,0,1,0,2.41,2.408A2.407,2.407,0,0,0,503.662,831.408Z" transform="translate(-357.741 -668.426)" fill="url(#linear-gradient-17)"></path><path id="Path_247" data-name="Path 247" d="M512.135,831.408a2.409,2.409,0,1,0,2.407,2.408A2.406,2.406,0,0,0,512.135,831.408Z" transform="translate(-353.167 -668.426)" fill="url(#linear-gradient-26)"></path><path id="Path_248" data-name="Path 248" d="M520.608,831.408a2.409,2.409,0,1,0,2.41,2.408A2.409,2.409,0,0,0,520.608,831.408Z" transform="translate(-348.595 -668.426)" fill="url(#linear-gradient-17)"></path><path id="Path_249" data-name="Path 249" d="M529.081,831.408a2.409,2.409,0,1,0,2.41,2.408A2.406,2.406,0,0,0,529.081,831.408Z" transform="translate(-344.021 -668.426)" fill="url(#linear-gradient-175)"></path><path id="Path_250" data-name="Path 250" d="M537.557,831.408a2.409,2.409,0,1,0,2.405,2.408A2.407,2.407,0,0,0,537.557,831.408Z" transform="translate(-339.447 -668.426)" fill="url(#linear-gradient-176)"></path><path id="Path_251" data-name="Path 251" d="M546.03,831.408a2.409,2.409,0,1,0,2.407,2.408A2.408,2.408,0,0,0,546.03,831.408Z" transform="translate(-334.875 -668.426)" fill="url(#linear-gradient-162)"></path><path id="Path_252" data-name="Path 252" d="M427.4,838.969a2.408,2.408,0,1,0,2.41,2.408A2.409,2.409,0,0,0,427.4,838.969Z" transform="translate(-398.899 -664.345)" fill="url(#linear-gradient)"></path><path id="Path_253" data-name="Path 253" d="M435.876,838.969a2.408,2.408,0,1,0,2.41,2.408A2.41,2.41,0,0,0,435.876,838.969Z" transform="translate(-394.326 -664.345)" fill="url(#linear-gradient)"></path><path id="Path_254" data-name="Path 254" d="M444.347,838.969a2.408,2.408,0,1,0,2.408,2.408A2.407,2.407,0,0,0,444.347,838.969Z" transform="translate(-389.753 -664.345)" fill="url(#linear-gradient-31)"></path><path id="Path_255" data-name="Path 255" d="M452.822,838.969a2.408,2.408,0,1,0,2.408,2.408A2.408,2.408,0,0,0,452.822,838.969Z" transform="translate(-385.18 -664.345)" fill="url(#linear-gradient-32)"></path><path id="Path_256" data-name="Path 256" d="M461.3,838.969a2.408,2.408,0,1,0,2.407,2.408A2.406,2.406,0,0,0,461.3,838.969Z" transform="translate(-380.606 -664.345)" fill="url(#linear-gradient-33)"></path><path id="Path_257" data-name="Path 257" d="M469.767,838.969a2.408,2.408,0,1,0,2.41,2.408A2.407,2.407,0,0,0,469.767,838.969Z" transform="translate(-376.033 -664.345)" fill="url(#linear-gradient)"></path><path id="Path_258" data-name="Path 258" d="M478.242,838.969a2.408,2.408,0,1,0,2.408,2.408A2.408,2.408,0,0,0,478.242,838.969Z" transform="translate(-371.461 -664.345)" fill="url(#linear-gradient-3)"></path><path id="Path_259" data-name="Path 259" d="M486.716,838.969a2.408,2.408,0,1,0,2.408,2.408A2.408,2.408,0,0,0,486.716,838.969Z" transform="translate(-366.887 -664.345)" fill="url(#linear-gradient)"></path><path id="Path_260" data-name="Path 260" d="M495.187,838.969a2.408,2.408,0,1,0,2.41,2.408A2.407,2.407,0,0,0,495.187,838.969Z" transform="translate(-362.314 -664.345)" fill="url(#linear-gradient-33)"></path><path id="Path_261" data-name="Path 261" d="M503.662,838.969a2.408,2.408,0,1,0,2.41,2.408A2.408,2.408,0,0,0,503.662,838.969Z" transform="translate(-357.741 -664.345)" fill="url(#linear-gradient)"></path><path id="Path_262" data-name="Path 262" d="M512.135,838.969a2.408,2.408,0,1,0,2.407,2.408A2.407,2.407,0,0,0,512.135,838.969Z" transform="translate(-353.167 -664.345)" fill="url(#linear-gradient-7)"></path><path id="Path_263" data-name="Path 263" d="M520.608,838.969a2.408,2.408,0,1,0,2.41,2.408A2.41,2.41,0,0,0,520.608,838.969Z" transform="translate(-348.595 -664.345)" fill="url(#linear-gradient)"></path><path id="Path_264" data-name="Path 264" d="M529.081,838.969a2.408,2.408,0,1,0,2.41,2.408A2.407,2.407,0,0,0,529.081,838.969Z" transform="translate(-344.021 -664.345)" fill="url(#linear-gradient-28)"></path><path id="Path_265" data-name="Path 265" d="M537.557,838.969a2.408,2.408,0,1,0,2.405,2.408A2.408,2.408,0,0,0,537.557,838.969Z" transform="translate(-339.447 -664.345)" fill="url(#linear-gradient-56)"></path><path id="Path_266" data-name="Path 266" d="M427.153,846.529a2.4,2.4,0,0,0-1.7.7c1.042,1.218,2.108,2.419,3.2,3.591a2.407,2.407,0,0,0-1.5-4.293Z" transform="translate(-398.651 -660.265)" fill="url(#linear-gradient-106)"></path><path id="Path_267" data-name="Path 267" d="M435.876,846.529a2.409,2.409,0,1,0,2.41,2.41A2.411,2.411,0,0,0,435.876,846.529Z" transform="translate(-394.326 -660.265)" fill="url(#linear-gradient)"></path><path id="Path_268" data-name="Path 268" d="M444.347,846.529a2.409,2.409,0,1,0,2.408,2.41A2.409,2.409,0,0,0,444.347,846.529Z" transform="translate(-389.753 -660.265)" fill="url(#linear-gradient-31)"></path><path id="Path_269" data-name="Path 269" d="M452.822,846.529a2.409,2.409,0,1,0,2.408,2.41A2.409,2.409,0,0,0,452.822,846.529Z" transform="translate(-385.18 -660.265)" fill="url(#linear-gradient-32)"></path><path id="Path_270" data-name="Path 270" d="M461.3,846.529a2.409,2.409,0,1,0,2.407,2.41A2.407,2.407,0,0,0,461.3,846.529Z" transform="translate(-380.606 -660.265)" fill="url(#linear-gradient-33)"></path><path id="Path_271" data-name="Path 271" d="M469.767,846.529a2.409,2.409,0,1,0,2.41,2.41A2.409,2.409,0,0,0,469.767,846.529Z" transform="translate(-376.033 -660.265)" fill="url(#linear-gradient)"></path><path id="Path_272" data-name="Path 272" d="M478.242,846.529a2.409,2.409,0,1,0,2.408,2.41A2.409,2.409,0,0,0,478.242,846.529Z" transform="translate(-371.461 -660.265)" fill="url(#linear-gradient-3)"></path><path id="Path_273" data-name="Path 273" d="M486.716,846.529a2.409,2.409,0,1,0,2.408,2.41A2.409,2.409,0,0,0,486.716,846.529Z" transform="translate(-366.887 -660.265)" fill="url(#linear-gradient)"></path><path id="Path_274" data-name="Path 274" d="M495.187,846.529a2.409,2.409,0,1,0,2.41,2.41A2.409,2.409,0,0,0,495.187,846.529Z" transform="translate(-362.314 -660.265)" fill="url(#linear-gradient-33)"></path><path id="Path_275" data-name="Path 275" d="M503.662,846.529a2.409,2.409,0,1,0,2.41,2.41A2.409,2.409,0,0,0,503.662,846.529Z" transform="translate(-357.741 -660.265)" fill="url(#linear-gradient)"></path><path id="Path_276" data-name="Path 276" d="M512.135,846.529a2.409,2.409,0,1,0,2.407,2.41A2.408,2.408,0,0,0,512.135,846.529Z" transform="translate(-353.167 -660.265)" fill="url(#linear-gradient-7)"></path><path id="Path_277" data-name="Path 277" d="M520.608,846.529a2.409,2.409,0,1,0,2.41,2.41A2.411,2.411,0,0,0,520.608,846.529Z" transform="translate(-348.595 -660.265)" fill="url(#linear-gradient)"></path><path id="Path_278" data-name="Path 278" d="M529.081,846.529a2.409,2.409,0,1,0,2.41,2.41A2.408,2.408,0,0,0,529.081,846.529Z" transform="translate(-344.021 -660.265)" fill="url(#linear-gradient-28)"></path><path id="Path_279" data-name="Path 279" d="M535.147,848.939a2.4,2.4,0,0,0,.8,1.786q1.637-1.765,3.2-3.6a2.4,2.4,0,0,0-3.992,1.809Z" transform="translate(-339.447 -660.265)" fill="url(#linear-gradient-28)"></path><path id="Path_280" data-name="Path 280" d="M435.822,854.09a2.4,2.4,0,0,0-2.256,1.572q1.725,1.48,3.509,2.89a2.406,2.406,0,0,0-1.253-4.462Z" transform="translate(-394.272 -656.184)" fill="url(#linear-gradient)"></path><path id="Path_281" data-name="Path 281" d="M444.347,854.09a2.409,2.409,0,1,0,2.408,2.408A2.408,2.408,0,0,0,444.347,854.09Z" transform="translate(-389.753 -656.184)" fill="url(#linear-gradient-31)"></path><path id="Path_282" data-name="Path 282" d="M452.822,854.09a2.409,2.409,0,1,0,2.408,2.408A2.409,2.409,0,0,0,452.822,854.09Z" transform="translate(-385.18 -656.184)" fill="url(#linear-gradient-32)"></path><path id="Path_283" data-name="Path 283" d="M461.3,854.09A2.409,2.409,0,1,0,463.7,856.5,2.407,2.407,0,0,0,461.3,854.09Z" transform="translate(-380.606 -656.184)" fill="url(#linear-gradient-33)"></path><path id="Path_284" data-name="Path 284" d="M469.767,854.09a2.409,2.409,0,1,0,2.41,2.408A2.408,2.408,0,0,0,469.767,854.09Z" transform="translate(-376.033 -656.184)" fill="url(#linear-gradient)"></path><path id="Path_285" data-name="Path 285" d="M478.242,854.09a2.409,2.409,0,1,0,2.408,2.408A2.409,2.409,0,0,0,478.242,854.09Z" transform="translate(-371.461 -656.184)" fill="url(#linear-gradient-3)"></path><path id="Path_286" data-name="Path 286" d="M486.716,854.09a2.409,2.409,0,1,0,2.408,2.408A2.409,2.409,0,0,0,486.716,854.09Z" transform="translate(-366.887 -656.184)" fill="url(#linear-gradient)"></path><path id="Path_287" data-name="Path 287" d="M495.187,854.09a2.409,2.409,0,1,0,2.41,2.408A2.408,2.408,0,0,0,495.187,854.09Z" transform="translate(-362.314 -656.184)" fill="url(#linear-gradient-33)"></path><path id="Path_288" data-name="Path 288" d="M503.662,854.09a2.409,2.409,0,1,0,2.41,2.408A2.409,2.409,0,0,0,503.662,854.09Z" transform="translate(-357.741 -656.184)" fill="url(#linear-gradient)"></path><path id="Path_289" data-name="Path 289" d="M512.135,854.09a2.409,2.409,0,1,0,2.407,2.408A2.408,2.408,0,0,0,512.135,854.09Z" transform="translate(-353.167 -656.184)" fill="url(#linear-gradient-7)"></path><path id="Path_290" data-name="Path 290" d="M520.608,854.09a2.409,2.409,0,1,0,2.41,2.408A2.411,2.411,0,0,0,520.608,854.09Z" transform="translate(-348.595 -656.184)" fill="url(#linear-gradient)"></path><path id="Path_291" data-name="Path 291" d="M529.081,854.09a2.409,2.409,0,0,0-1.366,4.393q1.818-1.439,3.572-2.95A2.411,2.411,0,0,0,529.081,854.09Z" transform="translate(-344.021 -656.184)" fill="url(#linear-gradient-175)"></path><path id="Path_292" data-name="Path 292" d="M443.906,861.651a2.408,2.408,0,0,0-1.149.291c1.17.727,2.36,1.432,3.557,2.116A2.4,2.4,0,0,0,443.906,861.651Z" transform="translate(-389.312 -652.103)" fill="url(#linear-gradient-269)"></path><path id="Path_293" data-name="Path 293" d="M452.822,861.651a2.408,2.408,0,1,0,2.408,2.408A2.409,2.409,0,0,0,452.822,861.651Z" transform="translate(-385.18 -652.103)" fill="url(#linear-gradient-8)"></path><path id="Path_294" data-name="Path 294" d="M461.3,861.651a2.408,2.408,0,1,0,2.407,2.408A2.407,2.407,0,0,0,461.3,861.651Z" transform="translate(-380.606 -652.103)" fill="url(#linear-gradient-5)"></path><path id="Path_295" data-name="Path 295" d="M469.767,861.651a2.408,2.408,0,1,0,2.41,2.408A2.408,2.408,0,0,0,469.767,861.651Z" transform="translate(-376.033 -652.103)" fill="url(#linear-gradient-10)"></path><path id="Path_296" data-name="Path 296" d="M478.242,861.651a2.408,2.408,0,1,0,2.408,2.408A2.409,2.409,0,0,0,478.242,861.651Z" transform="translate(-371.461 -652.103)" fill="url(#linear-gradient-11)"></path><path id="Path_297" data-name="Path 297" d="M486.716,861.651a2.408,2.408,0,1,0,2.408,2.408A2.409,2.409,0,0,0,486.716,861.651Z" transform="translate(-366.887 -652.103)" fill="url(#linear-gradient-10)"></path><path id="Path_298" data-name="Path 298" d="M495.187,861.651a2.408,2.408,0,1,0,2.41,2.408A2.408,2.408,0,0,0,495.187,861.651Z" transform="translate(-362.314 -652.103)" fill="url(#linear-gradient-5)"></path><path id="Path_299" data-name="Path 299" d="M503.662,861.651a2.408,2.408,0,1,0,2.41,2.408A2.409,2.409,0,0,0,503.662,861.651Z" transform="translate(-357.741 -652.103)" fill="url(#linear-gradient-10)"></path><path id="Path_300" data-name="Path 300" d="M512.135,861.651a2.408,2.408,0,1,0,2.407,2.408A2.408,2.408,0,0,0,512.135,861.651Z" transform="translate(-353.167 -652.103)" fill="url(#linear-gradient-15)"></path><path id="Path_301" data-name="Path 301" d="M518.2,863.941q1.737-1,3.437-2.052a2.366,2.366,0,0,0-1.036-.237A2.4,2.4,0,0,0,518.2,863.941Z" transform="translate(-348.592 -652.103)" fill="url(#linear-gradient-278)"></path><path id="Path_302" data-name="Path 302" d="M460.948,869.211a2.379,2.379,0,0,0-1.418.467q1.818.568,3.661,1.075A2.4,2.4,0,0,0,460.948,869.211Z" transform="translate(-380.259 -648.023)" fill="url(#linear-gradient-178)"></path><path id="Path_303" data-name="Path 303" d="M469.767,869.211a2.408,2.408,0,0,0-2.1,3.575q1.834.351,3.692.645a2.408,2.408,0,0,0-1.587-4.22Z" transform="translate(-376.033 -648.023)" fill="url(#linear-gradient-17)"></path><path id="Path_304" data-name="Path 304" d="M478.242,869.211a2.41,2.41,0,1,0,2.408,2.41A2.409,2.409,0,0,0,478.242,869.211Z" transform="translate(-371.461 -648.023)" fill="url(#linear-gradient-3)"></path><path id="Path_305" data-name="Path 305" d="M486.716,869.211a2.41,2.41,0,1,0,2.408,2.41A2.409,2.409,0,0,0,486.716,869.211Z" transform="translate(-366.887 -648.023)" fill="url(#linear-gradient)"></path><path id="Path_306" data-name="Path 306" d="M495.187,869.211a2.407,2.407,0,0,0-1.614,4.193c1.255-.2,2.5-.42,3.745-.664a2.383,2.383,0,0,0,.279-1.12A2.409,2.409,0,0,0,495.187,869.211Z" transform="translate(-362.314 -648.023)" fill="url(#linear-gradient-20)"></path><path id="Path_307" data-name="Path 307" d="M501.374,870.691q1.8-.5,3.581-1.059a2.408,2.408,0,0,0-3.581,1.059Z" transform="translate(-357.675 -648.023)" fill="url(#linear-gradient-2)"></path></g></g></svg> 