<?xml version="1.0" encoding="UTF-8"?> <svg xmlns="http://www.w3.org/2000/svg" width="40" height="40" viewBox="0 0 40 40" fill="none"><path d="M31.5467 0H8.45333C3.78469 0 0 3.78466 0 8.4533V31.5466C0 36.2152 3.78469 40 8.45333 40H31.5467C36.2153 40 40 36.2152 40 31.5466V8.4533C40 3.78466 36.2153 0 31.5467 0Z" fill="url(#paint0_linear_17_217)"></path><path d="M17.6362 7.62095C16.479 7.62095 15.5124 8.4533 15.299 9.54949H10.0171V15.3218L9.48284 14.7886L8.80951 15.4619L10.4609 17.1134C10.3462 17.1218 10.2382 17.1707 10.1562 17.2514L6.78951 20.6181C6.70024 20.7073 6.65009 20.8285 6.65009 20.9547C6.65009 21.081 6.70024 21.2021 6.78951 21.2914L10.1562 24.66C10.2428 24.7465 10.3595 24.7963 10.4819 24.799L8.80951 26.4714L9.48284 27.1447L10.0162 26.6113V30.4781H15.3028C15.4141 31.015 15.7068 31.4973 16.1317 31.844C16.5566 32.1906 17.0878 32.3806 17.6362 32.3819H22.3981C22.9463 32.38 23.4773 32.1897 23.9019 31.8429C24.3265 31.4961 24.6191 31.0139 24.7305 30.4771H29.54V25.1818L30.0743 25.7152L30.7476 25.0419L29.0647 23.358L27.3809 25.0419L28.0543 25.7152L28.5876 25.1818V29.5248H24.7305C24.6197 28.9875 24.3272 28.5047 23.9022 28.1578C23.4772 27.8109 22.9457 27.621 22.3971 27.62H17.6352C17.0868 27.6212 16.5555 27.8111 16.1307 28.158C15.7059 28.5049 15.4136 28.9876 15.3028 29.5248H10.9695V26.6095L11.5028 27.1429L12.1762 26.4695L10.5038 24.7972C10.6267 24.7972 10.7428 24.7448 10.8295 24.6581L14.1962 21.2894C14.2854 21.2001 14.3356 21.0791 14.3356 20.9529C14.3356 20.8266 14.2854 20.7055 14.1962 20.6162L10.8295 17.2495C10.7479 17.1683 10.6396 17.1192 10.5247 17.1114L12.1762 15.4599L11.5028 14.7866L10.9695 15.32V10.5H15.3105C15.4257 11.0316 15.7191 11.5079 16.1421 11.85C16.5651 12.1921 17.0922 12.3794 17.6362 12.3809H22.3981C23.5362 12.3809 24.4914 11.5714 24.7219 10.5H28.5886V16.7485L28.0543 16.2152L27.3809 16.8876L29.0647 18.5715L30.7476 16.8876L30.0743 16.2142L29.5409 16.7476V9.54856H24.7333C24.6275 9.00631 24.3367 8.51763 23.9106 8.16591C23.4845 7.81418 22.9496 7.6212 22.3971 7.61996L17.6362 7.62095ZM29.0647 18.5733H25.2552C25.1289 18.5733 25.0078 18.6235 24.9185 18.7128C24.8292 18.8021 24.779 18.9232 24.779 19.0495V23.3238L25.2552 23.3352H32.8743C33.0006 23.3352 33.1217 23.285 33.211 23.1957C33.3003 23.1064 33.3505 22.9853 33.3505 22.859V19.0495C33.3505 18.9232 33.3003 18.8021 33.211 18.7128C33.1217 18.6235 33.0006 18.5733 32.8743 18.5733H29.0647ZM17.6362 8.57333H22.3981C23.1981 8.57333 23.8266 9.2019 23.8266 10.0019C23.8266 10.8019 23.1981 11.4305 22.3981 11.4305H17.6362C16.8362 11.4305 16.2076 10.8019 16.2076 10.0019C16.2076 9.2019 16.8362 8.57333 17.6362 8.57333ZM10.4933 18.2609L13.1866 20.9543L10.4933 23.6495L7.79903 20.9543L10.4933 18.2609ZM25.7314 19.5257H32.3981V22.3828H25.7314V19.5257ZM17.6362 28.5733H22.3981C23.1981 28.5733 23.8266 29.2019 23.8266 30.0019C23.8266 30.8019 23.1981 31.4304 22.3981 31.4304H17.6362C16.8362 31.4304 16.2076 30.8019 16.2076 30.0019C16.2076 29.2019 16.8362 28.5733 17.6362 28.5733Z" fill="white"></path><defs><linearGradient id="paint0_linear_17_217" x1="35.2398" y1="36.4764" x2="3.38195" y2="2.60649" gradientUnits="userSpaceOnUse"><stop stop-color="#0B0B0B"></stop><stop offset="1" stop-color="#656E85"></stop></linearGradient></defs></svg> 