<?xml version="1.0" encoding="UTF-8"?> <svg xmlns="http://www.w3.org/2000/svg" width="40" height="40" viewBox="0 0 40 40" fill="none"><path d="M18.0369 2.5H16.25C16.0842 2.5 15.9253 2.56585 15.8081 2.68306C15.6908 2.80027 15.625 2.95924 15.625 3.125C15.625 3.29076 15.6908 3.44973 15.8081 3.56694C15.9253 3.68415 16.0842 3.75 16.25 3.75H18.0363C18.202 3.75 18.361 3.68415 18.4782 3.56694C18.5954 3.44973 18.6613 3.29076 18.6613 3.125C18.6613 2.95924 18.5954 2.80027 18.4782 2.68306C18.361 2.56585 18.2026 2.5 18.0369 2.5ZM22.3225 3.125C22.3225 3.29076 22.3883 3.44973 22.5056 3.56694C22.6228 3.68415 22.7817 3.75 22.9475 3.75H24.7338C24.8995 3.75 25.0585 3.68415 25.1757 3.56694C25.2929 3.44973 25.3588 3.29076 25.3588 3.125C25.3588 2.95924 25.2929 2.80027 25.1757 2.68306C25.0585 2.56585 24.8995 2.5 24.7338 2.5H22.9475C22.7817 2.5 22.6228 2.56585 22.5056 2.68306C22.3883 2.80027 22.3225 2.95924 22.3225 3.125Z" fill="#0A0A0A"></path><path d="M16.0317 3.75H17.818C17.9838 3.75 18.1427 3.68415 18.2599 3.56694C18.3771 3.44973 18.443 3.29076 18.443 3.125C18.443 2.95924 18.3771 2.80027 18.2599 2.68306C18.1427 2.56585 17.9838 2.5 17.818 2.5H16.0311C15.8654 2.5 15.7064 2.56585 15.5892 2.68306C15.472 2.80027 15.4061 2.95924 15.4061 3.125C15.4061 3.29076 15.472 3.44973 15.5892 3.56694C15.7064 3.68415 15.866 3.75 16.0317 3.75ZM22.7286 3.75H24.5149C24.6806 3.75 24.8396 3.68415 24.9568 3.56694C25.074 3.44973 25.1399 3.29076 25.1399 3.125C25.1399 2.95924 25.074 2.80027 24.9568 2.68306C24.8396 2.56585 24.6806 2.5 24.5149 2.5H22.7286C22.5629 2.5 22.4039 2.56585 22.2867 2.68306C22.1695 2.80027 22.1036 2.95924 22.1036 3.125C22.1036 3.29076 22.1695 3.44973 22.2867 3.56694C22.4039 3.68415 22.5629 3.75 22.7286 3.75ZM9.55799 32.3169C9.6159 32.3751 9.68475 32.4213 9.76058 32.4529C9.83642 32.4844 9.91774 32.5006 9.99987 32.5006C10.082 32.5006 10.1633 32.4844 10.2391 32.4529C10.315 32.4213 10.3838 32.3751 10.4417 32.3169C10.5589 32.1997 10.6247 32.0407 10.6247 31.875C10.6247 31.7093 10.5589 31.5503 10.4417 31.4331L7.75862 28.75L10.4417 26.0669C10.5014 26.0092 10.549 25.9403 10.5818 25.864C10.6146 25.7878 10.6318 25.7057 10.6325 25.6228C10.6332 25.5398 10.6174 25.4575 10.586 25.3807C10.5546 25.3038 10.5082 25.2341 10.4495 25.1754C10.3908 25.1167 10.321 25.0703 10.2442 25.0389C10.1674 25.0074 10.0851 24.9916 10.0021 24.9923C9.91913 24.9931 9.83712 25.0103 9.76086 25.0431C9.68461 25.0758 9.61565 25.1234 9.55799 25.1831L6.43299 28.3081C6.31582 28.4253 6.25 28.5843 6.25 28.75C6.25 28.9157 6.31582 29.0747 6.43299 29.1919L9.55799 32.3169ZM19.558 32.3169C19.6159 32.3751 19.6847 32.4213 19.7606 32.4529C19.8364 32.4844 19.9177 32.5006 19.9999 32.5006C20.082 32.5006 20.1633 32.4844 20.2392 32.4529C20.315 32.4213 20.3838 32.3751 20.4417 32.3169L23.5667 29.1919C23.6839 29.0747 23.7497 28.9157 23.7497 28.75C23.7497 28.5843 23.6839 28.4253 23.5667 28.3081L20.4417 25.1831C20.3841 25.1234 20.3151 25.0758 20.2389 25.0431C20.1626 25.0103 20.0806 24.9931 19.9976 24.9923C19.9146 24.9916 19.8323 25.0074 19.7555 25.0389C19.6787 25.0703 19.6089 25.1167 19.5502 25.1754C19.4916 25.2341 19.4452 25.3038 19.4137 25.3807C19.3823 25.4575 19.3665 25.5398 19.3672 25.6228C19.3679 25.7057 19.3852 25.7878 19.4179 25.864C19.4507 25.9403 19.4983 26.0092 19.558 26.0669L22.2411 28.75L19.558 31.4331C19.4408 31.5503 19.375 31.7093 19.375 31.875C19.375 32.0407 19.4408 32.1997 19.558 32.3169ZM11.9317 35.6219C12.0066 35.6555 12.0873 35.674 12.1693 35.6764C12.2514 35.6788 12.333 35.665 12.4097 35.6358C12.4864 35.6066 12.5566 35.5626 12.6162 35.5063C12.6759 35.4499 12.7238 35.3824 12.7574 35.3075L18.3824 22.7556C18.4159 22.6808 18.4344 22.6 18.4368 22.518C18.4392 22.436 18.4254 22.3544 18.3962 22.2777C18.367 22.201 18.323 22.1309 18.2667 22.0712C18.2104 22.0116 18.1428 21.9636 18.068 21.93C17.9931 21.8964 17.9124 21.8779 17.8304 21.8756C17.7484 21.8732 17.6667 21.887 17.5901 21.9162C17.5134 21.9454 17.4432 21.9894 17.3836 22.0457C17.3239 22.102 17.2759 22.1695 17.2424 22.2444L11.6174 34.7962C11.5838 34.8711 11.5652 34.9518 11.5628 35.0338C11.5604 35.1159 11.5742 35.1975 11.6034 35.2742C11.6326 35.3509 11.6767 35.4211 11.733 35.4807C11.7893 35.5404 11.8569 35.5883 11.9317 35.6219Z" fill="#A400B3"></path><path d="M38.75 0H12.5C11.8106 0 11.25 0.560625 11.25 1.25V11.25H1.25C0.560625 11.25 0 11.8106 0 12.5V38.75C0 39.4394 0.560625 40 1.25 40H27.5C28.1894 40 28.75 39.4394 28.75 38.75V28.75H38.75C39.4394 28.75 40 28.1894 40 27.5V1.25C40 0.560625 39.4394 0 38.75 0ZM27.5 38.75H1.25V18.75H27.5V38.75ZM27.5 17.5H1.25V12.5H11.8775L27.5 12.4981V17.5ZM38.75 27.5H28.75V12.5C28.75 11.8106 28.1894 11.25 27.5 11.25H12.5V7.5H38.75V27.5ZM38.75 6.25H12.5V1.25H38.75V6.25Z" fill="#0A0A0A"></path></svg> 