<?xml version="1.0" encoding="UTF-8"?> <svg xmlns="http://www.w3.org/2000/svg" width="40" height="40" viewBox="0 0 40 40" fill="none"><path d="M27.3186 22.8725H36.9534V29.8756H27.3186V22.8725ZM27.3186 18.9875H36.9534V20.8476H27.3186V18.9875ZM27.3167 33.9602H35.1414V34.7025H27.3167V33.9602ZM27.3167 31.7335H36.9515V32.4757H27.3167V31.7335Z" fill="#A400B3"></path><path d="M23.2074 35.4797C23.2074 35.6875 23.0613 35.8508 22.8898 35.8508H12.4166C12.2452 35.8508 12.0991 35.6875 12.0991 35.4797C12.0991 35.2793 12.2452 35.1086 12.4166 35.1086C13.0518 35.1086 13.5281 34.8785 13.8774 34.4034C14.4808 33.5869 14.5379 32.236 14.5125 31.427H20.7939C20.7685 32.2435 20.832 33.5944 21.429 34.4108C21.7783 34.8785 22.2547 35.1086 22.8898 35.1086C23.0613 35.1086 23.2074 35.2793 23.2074 35.4797ZM32.1943 0H3.1121C1.39092 0 0 1.62553 0 3.63704V27.0477C0 29.0592 1.39092 30.6847 3.1121 30.6847H22.9089V26.1347H3.1121C2.68657 26.1347 2.33725 25.7265 2.33725 25.2217V3.63704C2.33725 3.13231 2.68657 2.72407 3.1121 2.72407H32.1943C32.6199 2.72407 32.9692 3.13231 32.9692 3.63704V14.0583H35.3064V3.63704C35.3064 1.62553 33.9155 0 32.1943 0ZM17.6564 27.4411C18.1073 27.4411 18.4757 27.8716 18.4757 28.4134C18.4757 28.9479 18.1073 29.3784 17.6564 29.3784C17.5474 29.3793 17.4394 29.3551 17.3385 29.3071C17.2376 29.259 17.1458 29.1881 17.0685 29.0984C16.9911 29.0087 16.9297 28.902 16.8878 28.7844C16.8459 28.6669 16.8244 28.5408 16.8244 28.4134C16.8244 27.8716 17.1928 27.4411 17.6564 27.4411Z" fill="#070707"></path><path d="M32.3341 3.63703V6.46501H2.97235V3.63703C2.97235 3.54796 3.03586 3.46631 3.11208 3.46631H32.1943C32.2705 3.46631 32.3341 3.54796 32.3341 3.63703ZM18.247 8.69399H29.7853V9.43625H18.247V8.69399ZM15.49 9.80737V13.1475C15.49 13.3444 15.4231 13.5332 15.304 13.6724C15.1848 13.8116 15.0233 13.8898 14.8549 13.8898H5.75355C5.58511 13.8898 5.42356 13.8116 5.30445 13.6724C5.18534 13.5332 5.11843 13.3444 5.11843 13.1475V9.80737C5.11843 9.61052 5.18534 9.42172 5.30445 9.28252C5.42356 9.14332 5.58511 9.06512 5.75355 9.06512H14.8549C15.0233 9.06512 15.1848 9.14332 15.304 9.28252C15.4231 9.42172 15.49 9.61052 15.49 9.80737ZM18.247 11.1063H29.7853V11.8486H18.247V11.1063ZM18.247 13.5186H21.859V14.2609H18.247V13.5186ZM20.8911 17.2299V23.309C20.8911 23.5058 20.8241 23.6946 20.705 23.8338C20.5859 23.973 20.4244 24.0512 20.2559 24.0512H15.0479C14.8795 24.0512 14.7179 23.973 14.5988 23.8338C14.4797 23.6946 14.4128 23.5058 14.4128 23.309V17.2299C14.4128 17.033 14.4797 16.8442 14.5988 16.705C14.7179 16.5658 14.8795 16.4876 15.0479 16.4876H20.2559C20.4244 16.4876 20.5859 16.5658 20.705 16.705C20.8241 16.8442 20.8911 17.033 20.8911 17.2299ZM11.5948 17.2299V23.309C11.5948 23.5058 11.5279 23.6946 11.4087 23.8338C11.2896 23.973 11.1281 24.0512 10.9596 24.0512H5.75165C5.5832 24.0512 5.42166 23.973 5.30255 23.8338C5.18344 23.6946 5.11652 23.5058 5.11652 23.309V17.2299C5.11652 17.033 5.18344 16.8442 5.30255 16.705C5.42166 16.5658 5.5832 16.4876 5.75165 16.4876H10.9596C11.1281 16.4876 11.2896 16.5658 11.4087 16.705C11.5279 16.8442 11.5948 17.033 11.5948 17.2299ZM38.0946 14.8005H25.4493C24.4014 14.8005 23.544 15.7951 23.544 17.0273V37.7732C23.544 38.9979 24.4014 40 25.4493 40H38.0946C39.1489 40 40 38.9979 40 37.7732V17.0273C40 15.7951 39.1489 14.8005 38.0946 14.8005ZM31.4322 39.1241C31.0575 39.1241 30.7526 38.7678 30.7526 38.3299C30.7518 38.1716 30.7914 38.0166 30.8662 37.8845C30.941 37.7525 31.0477 37.6495 31.1727 37.5885C31.2977 37.5275 31.4355 37.5113 31.5684 37.5419C31.7013 37.5726 31.8234 37.6488 31.9192 37.7607C32.015 37.8727 32.0802 38.0154 32.1064 38.1708C32.1327 38.3261 32.1188 38.487 32.0666 38.6332C32.0144 38.7793 31.9262 38.904 31.8133 38.9914C31.7003 39.0788 31.5677 39.125 31.4322 39.1241ZM38.571 35.9176C38.571 36.3258 38.2915 36.6599 37.9358 36.6599H25.6081C25.2588 36.6599 24.973 36.3258 24.973 35.9176V17.3984C24.973 16.9827 25.2588 16.6561 25.6081 16.6561H37.9358C38.2915 16.6561 38.571 16.9827 38.571 17.3984V35.9176Z" fill="#181818"></path></svg> 